<svg width="350" height="279" viewBox="0 0 350 279" fill="none" xmlns="http://www.w3.org/2000/svg">
<path fill-rule="evenodd" clip-rule="evenodd" d="M74.0733 146.485C81.1047 146.485 86.8048 140.785 86.8048 133.754C86.8048 126.722 81.1047 121.022 74.0733 121.022C67.0419 121.022 61.3419 126.722 61.3419 133.754C61.3419 140.785 67.0419 146.485 74.0733 146.485ZM74.0733 197.408C81.1047 197.408 86.8048 191.708 86.8048 184.678C86.8048 177.646 81.1047 171.946 74.0733 171.946C67.0419 171.946 61.3419 177.646 61.3419 184.678C61.3419 191.708 67.0419 197.408 74.0733 197.408ZM188.657 133.754C188.657 140.785 182.957 146.485 175.926 146.485C168.894 146.485 163.194 140.785 163.194 133.754C163.194 126.722 168.894 121.022 175.926 121.022C182.957 121.022 188.657 126.722 188.657 133.754ZM175.926 197.408C182.957 197.408 188.657 191.708 188.657 184.678C188.657 177.646 182.957 171.946 175.926 171.946C168.894 171.946 163.194 177.646 163.194 184.678C163.194 191.708 168.894 197.408 175.926 197.408ZM137.732 133.754C137.732 140.785 132.032 146.485 125 146.485C117.969 146.485 112.269 140.785 112.269 133.754C112.269 126.722 117.969 121.022 125 121.022C132.032 121.022 137.732 126.722 137.732 133.754ZM125 197.408C132.032 197.408 137.732 191.708 137.732 184.678C137.732 177.646 132.032 171.946 125 171.946C117.969 171.946 112.269 177.646 112.269 184.678C112.269 191.708 117.969 197.408 125 197.408ZM74.0744 0C79.8275 0 84.4911 4.66371 84.4911 10.4166V13.029C94.199 12.7324 105.306 12.7326 118.066 12.7326H131.933C144.694 12.7326 155.801 12.7324 165.508 13.029V10.4166C165.508 4.66371 170.172 0 175.925 0C181.677 0 186.341 4.66371 186.341 10.4166V14.4722C198.058 15.948 207.941 18.7635 216.706 24.4385C225.345 30.0302 232.702 37.3868 238.294 46.0249C244.583 55.7412 247.361 66.8289 248.694 80.2641C249.999 93.4138 249.999 109.886 249.999 130.799V131.934C249.999 152.847 249.999 169.32 248.694 182.47C247.361 195.904 244.583 206.992 238.294 216.708C232.702 225.346 225.345 232.703 216.706 238.294C206.991 244.585 195.904 247.361 182.468 248.696C169.319 250.001 152.847 250 131.934 250H118.065C97.1531 250 80.6809 250.001 67.5315 248.696C54.0963 247.361 43.0087 244.585 33.2923 238.294C24.6543 232.703 17.2976 225.346 11.7059 216.708C5.4161 206.992 2.63888 195.904 1.30514 182.47C-0.000179745 169.32 -9.55469e-05 152.847 1.67515e-06 131.935V130.799C-9.55469e-05 109.886 -0.000179745 93.4137 1.30514 80.2641C2.63888 66.8289 5.4161 55.7412 11.7059 46.0249C17.2976 37.3868 24.6543 30.0302 33.2923 24.4385C42.0588 18.7635 51.9417 15.948 63.6578 14.4722V10.4166C63.6578 4.66371 68.3215 0 74.0744 0ZM165.508 33.871V35.8796C165.508 41.6325 170.172 46.2963 175.925 46.2963C181.677 46.2963 186.341 41.6325 186.341 35.8796V35.5034C194.823 36.7923 200.636 38.8524 205.386 41.9272C211.556 45.9213 216.811 51.1761 220.805 57.3461C223.669 61.7712 225.654 67.119 226.954 74.6879C222.804 74.2359 217.752 73.7388 211.802 73.243C192.418 71.6276 163.484 70.0241 125 70.0241C86.5156 70.0241 57.5813 71.6276 38.1973 73.243C32.2466 73.7388 27.1962 74.2358 23.0461 74.6879C24.3461 67.119 26.3301 61.7712 29.1947 57.3461C33.1887 51.1761 38.4435 45.9213 44.6135 41.9272C49.3634 38.8524 55.1763 36.7923 63.6578 35.5034V35.8796C63.6578 41.6325 68.3215 46.2963 74.0744 46.2963C79.8275 46.2963 84.4911 41.6325 84.4911 35.8796V33.871C93.8833 33.5706 105.038 33.5659 118.634 33.5659H131.365C144.962 33.5659 156.116 33.5706 165.508 33.871ZM228.815 95.8664C224.275 95.328 218.026 94.6671 210.072 94.0044C191.262 92.4367 162.904 90.8574 125 90.8574C87.0951 90.8574 58.7379 92.4367 39.9274 94.0044C31.973 94.6671 25.7252 95.328 21.1844 95.8664C20.8386 105.537 20.8333 117.109 20.8333 131.367C20.8333 152.971 20.8452 168.411 22.0365 180.411C23.2112 192.245 25.4508 199.604 29.1947 205.388C33.1887 211.557 38.4435 216.811 44.6135 220.806C50.3968 224.55 57.756 226.789 69.5896 227.964C81.59 229.156 97.0291 229.167 118.634 229.167H131.365C152.971 229.167 168.409 229.156 180.409 227.964C192.244 226.789 199.602 224.55 205.386 220.806C211.556 216.811 216.811 211.557 220.805 205.388C224.548 199.604 226.788 192.245 227.963 180.411C229.154 168.411 229.166 152.971 229.166 131.367C229.166 117.109 229.161 105.537 228.815 95.8664Z" fill="#9E42A5"/>
<circle cx="250" cy="179" r="90" fill="#FBEBFF" stroke="#9E42A5" stroke-width="20"/>
<path d="M250 129V229" stroke="#9E42A5" stroke-width="20" stroke-linecap="round"/>
<path d="M200 179H300" stroke="#9E42A5" stroke-width="20" stroke-linecap="round"/>
</svg>
