<svg width="72" height="72" viewBox="0 0 72 72" fill="none" xmlns="http://www.w3.org/2000/svg">
<path fill-rule="evenodd" clip-rule="evenodd" d="M21.3331 42.1877C23.3582 42.1877 24.9998 40.5461 24.9998 38.5213C24.9998 36.4961 23.3582 34.8544 21.3331 34.8544C19.3081 34.8544 17.6665 36.4961 17.6665 38.5213C17.6665 40.5461 19.3081 42.1877 21.3331 42.1877ZM21.3331 56.8536C23.3582 56.8536 24.9998 55.212 24.9998 53.1872C24.9998 51.162 23.3582 49.5204 21.3331 49.5204C19.3081 49.5204 17.6665 51.162 17.6665 53.1872C17.6665 55.212 19.3081 56.8536 21.3331 56.8536ZM54.3331 38.5213C54.3331 40.5461 52.6915 42.1877 50.6667 42.1877C48.6415 42.1877 46.9999 40.5461 46.9999 38.5213C46.9999 36.4961 48.6415 34.8544 50.6667 34.8544C52.6915 34.8544 54.3331 36.4961 54.3331 38.5213ZM50.6667 56.8536C52.6915 56.8536 54.3331 55.212 54.3331 53.1872C54.3331 51.162 52.6915 49.5204 50.6667 49.5204C48.6415 49.5204 46.9999 51.162 46.9999 53.1872C46.9999 55.212 48.6415 56.8536 50.6667 56.8536ZM39.6667 38.5213C39.6667 40.5461 38.0251 42.1877 35.9999 42.1877C33.975 42.1877 32.3334 40.5461 32.3334 38.5213C32.3334 36.4961 33.975 34.8544 35.9999 34.8544C38.0251 34.8544 39.6667 36.4961 39.6667 38.5213ZM35.9999 56.8536C38.0251 56.8536 39.6667 55.212 39.6667 53.1872C39.6667 51.162 38.0251 49.5204 35.9999 49.5204C33.975 49.5204 32.3334 51.162 32.3334 53.1872C32.3334 55.212 33.975 56.8536 35.9999 56.8536ZM21.3334 0C22.9903 0 24.3334 1.34315 24.3334 2.99999V3.75234C27.1293 3.66694 30.3281 3.66698 34.003 3.66698H37.9967C41.6719 3.66698 44.8707 3.66694 47.6663 3.75234V2.99999C47.6663 1.34315 49.0095 0 50.6663 0C52.3231 0 53.6663 1.34315 53.6663 2.99999V4.16798C57.0407 4.59302 59.8871 5.4039 62.4115 7.0383C64.8995 8.64869 67.0183 10.7674 68.6287 13.2552C70.4398 16.0535 71.2398 19.2467 71.6238 23.1161C71.9998 26.9032 71.9998 31.6473 71.9998 37.6701V37.9969C71.9998 44.0201 71.9998 48.764 71.6238 52.5512C71.2398 56.4204 70.4398 59.6136 68.6287 62.412C67.0183 64.8996 64.8995 67.0184 62.4115 68.6288C59.6135 70.4404 56.4203 71.24 52.5507 71.6244C48.7639 72.0004 44.0199 72 37.9971 72H34.0028C27.9801 72 23.2361 72.0004 19.4491 71.6244C15.5797 71.24 12.3865 70.4404 9.58818 68.6288C7.10043 67.0184 4.98171 64.8996 3.37131 62.412C1.55984 59.6136 0.759999 56.4204 0.375879 52.5512C-5.17665e-05 48.764 -2.75175e-05 44.0201 4.82443e-07 37.9973V37.6701C-2.75175e-05 31.6472 -5.17665e-05 26.9031 0.375879 23.1161C0.759999 19.2467 1.55984 16.0535 3.37131 13.2552C4.98171 10.7674 7.10043 8.64869 9.58818 7.0383C12.1129 5.4039 14.9592 4.59302 18.3334 4.16798V2.99999C18.3334 1.34315 19.6766 0 21.3334 0ZM47.6663 9.75485V10.3333C47.6663 11.9902 49.0095 13.3333 50.6663 13.3333C52.3231 13.3333 53.6663 11.9902 53.6663 10.3333V10.225C56.1091 10.5962 57.7831 11.1895 59.1511 12.075C60.9283 13.2253 62.4415 14.7387 63.5919 16.5157C64.4167 17.7901 64.9883 19.3303 65.3627 21.5101C64.1675 21.3799 62.7127 21.2368 60.9991 21.094C55.4163 20.6287 47.0835 20.1669 35.9999 20.1669C24.9165 20.1669 16.5834 20.6287 11.0008 21.094C9.28702 21.2368 7.8325 21.3799 6.63727 21.5101C7.01167 19.3303 7.58307 17.7901 8.40806 16.5157C9.55834 14.7387 11.0717 13.2253 12.8487 12.075C14.2167 11.1895 15.8908 10.5962 18.3334 10.225V10.3333C18.3334 11.9902 19.6766 13.3333 21.3334 13.3333C22.9903 13.3333 24.3334 11.9902 24.3334 10.3333V9.75485C27.0384 9.66833 30.2509 9.66697 34.1666 9.66697H37.8331C41.7491 9.66697 44.9615 9.66833 47.6663 9.75485ZM65.8987 27.6095C64.5911 27.4545 62.7915 27.2641 60.5007 27.0733C55.0835 26.6218 46.9163 26.1669 35.9999 26.1669C25.0834 26.1669 16.9165 26.6218 11.4991 27.0733C9.20822 27.2641 7.40886 27.4545 6.10111 27.6095C6.00151 30.3947 5.99999 33.7275 5.99999 37.8337C5.99999 44.0557 6.00343 48.5024 6.34651 51.9584C6.68483 55.3664 7.32983 57.486 8.40806 59.1516C9.55834 60.9284 11.0717 62.4416 12.8487 63.592C14.5143 64.6704 16.6337 65.3152 20.0418 65.6536C23.4979 65.9968 27.9444 66 34.1666 66H37.8331C44.0555 66 48.5019 65.9968 51.9579 65.6536C55.3663 65.3152 57.4855 64.6704 59.1511 63.592C60.9283 62.4416 62.4415 60.9284 63.5919 59.1516C64.6699 57.486 65.3151 55.3664 65.6535 51.9584C65.9963 48.5024 65.9999 44.0557 65.9999 37.8337C65.9999 33.7275 65.9983 30.3947 65.8987 27.6095Z" fill="#B5B3B5"/>
</svg>
