<svg width="130" height="130" viewBox="0 0 130 130" fill="none" xmlns="http://www.w3.org/2000/svg">
<rect width="130" height="130" rx="65" fill="#FF8F00"/>
<path fill-rule="evenodd" clip-rule="evenodd" d="M28.6998 93.0927C26.4334 95.3591 26.4334 99.0338 28.6998 101.3C30.9661 103.567 34.6406 103.567 36.907 101.3L67.0001 71.2071L97.0932 101.3C99.3596 103.567 103.034 103.567 105.301 101.3C107.567 99.0338 107.567 95.3591 105.301 93.0927L75.2076 62.9996L105.3 32.907C107.566 30.6406 107.566 26.9661 105.3 24.6998C103.033 22.4334 99.3596 22.4334 97.0932 24.6998L67.0001 54.7926L36.9074 24.6998C34.641 22.4334 30.9665 22.4334 28.7002 24.6998C26.4338 26.9661 26.4338 30.6406 28.7002 32.907L58.793 62.9996L28.6998 93.0927Z" fill="white"/>
</svg>
