<svg width="199" height="205" viewBox="0 0 199 205" fill="none" xmlns="http://www.w3.org/2000/svg">
<path d="M155.855 12.613H9.98528C4.47056 12.613 0 17.0835 0 22.5983V164.726C0 170.24 4.47056 174.711 9.98528 174.711H155.855C161.369 174.711 165.84 170.24 165.84 164.726V22.5983C165.84 17.0835 161.369 12.613 155.855 12.613Z" fill="#ACB4FC"/>
<path d="M47.2917 53.1357H23.9997C20.1598 53.1357 17.0486 50.0245 17.0486 46.1846C17.0486 42.3446 20.1598 39.2334 23.9997 39.2334H47.2917C51.1317 39.2334 54.2429 42.3446 54.2429 46.1846C54.2429 50.0245 51.1317 53.1357 47.2917 53.1357Z" fill="white"/>
<path d="M94.2399 53.1357H70.9479C67.1079 53.1357 63.9967 50.0245 63.9967 46.1846C63.9967 42.3446 67.1079 39.2334 70.9479 39.2334H94.2399C98.0798 39.2334 101.191 42.3446 101.191 46.1846C101.191 50.0245 98.0798 53.1357 94.2399 53.1357Z" fill="white"/>
<path d="M140.256 53.1357H116.964C113.124 53.1357 110.013 50.0245 110.013 46.1846C110.013 42.3446 113.124 39.2334 116.964 39.2334H140.256C144.096 39.2334 147.207 42.3446 147.207 46.1846C147.207 50.0245 144.096 53.1357 140.256 53.1357Z" fill="white"/>
<path d="M47.2915 81.6341H23.9995C20.1595 81.6341 17.0483 78.5229 17.0483 74.6829C17.0483 70.843 20.1595 67.7318 23.9995 67.7318H47.2915C51.1314 67.7318 54.2426 70.843 54.2426 74.6829C54.2426 78.5229 51.1314 81.6341 47.2915 81.6341Z" fill="white"/>
<path d="M94.2399 81.6341H70.9479C67.1079 81.6341 63.9967 78.5229 63.9967 74.6829C63.9967 70.843 67.1079 67.7318 70.9479 67.7318H94.2399C98.0798 67.7318 101.191 70.843 101.191 74.6829C101.191 78.5229 98.0798 81.6341 94.2399 81.6341Z" fill="white"/>
<path d="M140.256 81.6341H116.964C113.124 81.6341 110.013 78.5229 110.013 74.6829C110.013 70.843 113.124 67.7318 116.964 67.7318H140.256C144.096 67.7318 147.207 70.843 147.207 74.6829C147.207 78.5229 144.096 81.6341 140.256 81.6341Z" fill="white"/>
<path d="M47.2915 113.867H23.9995C20.1595 113.867 17.0483 110.756 17.0483 106.916C17.0483 103.076 20.1595 99.965 23.9995 99.965H47.2915C51.1314 99.965 54.2426 103.076 54.2426 106.916C54.2426 110.756 51.1314 113.867 47.2915 113.867Z" fill="white"/>
<path d="M94.2399 113.867H70.9479C67.1079 113.867 63.9967 110.756 63.9967 106.916C63.9967 103.076 67.1079 99.965 70.9479 99.965H94.2399C98.0798 99.965 101.191 103.076 101.191 106.916C101.191 110.756 98.0798 113.867 94.2399 113.867Z" fill="white"/>
<path d="M140.256 113.867H116.964C113.124 113.867 110.013 110.756 110.013 106.916C110.013 103.076 113.124 99.965 116.964 99.965H140.256C144.096 99.965 147.207 103.076 147.207 106.916C147.207 110.756 144.096 113.867 140.256 113.867Z" fill="white"/>
<path d="M47.2915 145.869H23.9995C20.1595 145.869 17.0483 142.758 17.0483 138.918C17.0483 135.078 20.1595 131.967 23.9995 131.967H47.2915C51.1314 131.967 54.2426 135.078 54.2426 138.918C54.2426 142.758 51.1314 145.869 47.2915 145.869Z" fill="white"/>
<path d="M94.2399 145.869H70.9479C67.1079 145.869 63.9967 142.758 63.9967 138.918C63.9967 135.078 67.1079 131.967 70.9479 131.967H94.2399C98.0798 131.967 101.191 135.078 101.191 138.918C101.191 142.758 98.0798 145.869 94.2399 145.869Z" fill="white"/>
<path d="M140.256 145.869H116.964C113.124 145.869 110.013 142.758 110.013 138.918C110.013 135.078 113.124 131.967 116.964 131.967H140.256C144.096 131.967 147.207 135.078 147.207 138.918C147.207 142.758 144.096 145.869 140.256 145.869Z" fill="white"/>
<path d="M78.2213 84.0726C76.5676 84.0726 75.1872 83.0915 73.9819 82.2367L73.4914 81.8863L68.0258 77.6469C66.7505 76.6589 66.5122 74.816 67.5072 73.5407C68.4953 72.2654 70.3382 72.0272 71.6135 73.0222L77.3804 77.4718C77.6257 77.6469 77.906 77.8431 78.1372 78.0043C78.2143 77.9342 78.2984 77.8501 78.3965 77.752L91.8013 64.13C92.9364 62.9808 94.7934 62.9598 95.9425 64.095C97.0917 65.2302 97.1127 67.0871 95.9776 68.2362L82.5517 81.8863C80.9121 83.512 79.4896 84.0796 78.2213 84.0796V84.0726Z" fill="#F668FF" stroke="white" stroke-width="2" stroke-miterlimit="10"/>
<path d="M28.0288 23.4742C24.1608 23.4742 21.0216 20.3349 21.0216 16.467V7.00722C21.0216 3.13923 24.1608 0 28.0288 0C31.8968 0 35.036 3.13923 35.036 7.00722V16.467C35.036 20.3349 31.8968 23.4742 28.0288 23.4742Z" fill="#645CFF"/>
<path d="M54.6563 23.4742C50.7883 23.4742 47.649 20.3349 47.649 16.467V7.00722C47.649 3.13923 50.7883 0 54.6563 0C58.5242 0 61.6635 3.13923 61.6635 7.00722V16.467C61.6635 20.3349 58.5242 23.4742 54.6563 23.4742Z" fill="#645CFF"/>
<path d="M80.583 23.4742C76.715 23.4742 73.5758 20.3349 73.5758 16.467V7.00722C73.5758 3.13923 76.715 0 80.583 0C84.451 0 87.5902 3.13923 87.5902 7.00722V16.467C87.5902 20.3349 84.451 23.4742 80.583 23.4742Z" fill="#645CFF"/>
<path d="M107.21 23.4742C103.342 23.4742 100.203 20.3349 100.203 16.467V7.00722C100.203 3.13923 103.342 0 107.21 0C111.078 0 114.218 3.13923 114.218 7.00722V16.467C114.218 20.3349 111.078 23.4742 107.21 23.4742Z" fill="#645CFF"/>
<path d="M132.436 23.4742C128.568 23.4742 125.429 20.3349 125.429 16.467V7.00722C125.429 3.13923 128.568 0 132.436 0C136.304 0 139.444 3.13923 139.444 7.00722V16.467C139.444 20.3349 136.304 23.4742 132.436 23.4742Z" fill="#645CFF"/>
<path d="M147.208 200C172.912 200 193.75 179.162 193.75 153.458C193.75 127.754 172.912 106.916 147.208 106.916C121.503 106.916 100.666 127.754 100.666 153.458C100.666 179.162 121.503 200 147.208 200Z" fill="white" stroke="#BEBEFC" stroke-width="10" stroke-miterlimit="10"/>
<path d="M170.941 157.41H147.502V121.806C147.502 120.188 146.191 118.877 144.573 118.877C142.954 118.877 141.644 120.188 141.644 121.806V159.898C141.644 159.975 141.658 160.045 141.665 160.115C141.665 160.192 141.644 160.262 141.644 160.332C141.644 161.951 142.954 163.261 144.573 163.261H170.941C172.56 163.261 173.87 161.951 173.87 160.332C173.87 158.713 172.56 157.403 170.941 157.403V157.41Z" fill="#BEBEFC"/>
</svg>
