<svg width="62" height="62" viewBox="0 0 62 62" fill="none" xmlns="http://www.w3.org/2000/svg">
<path d="M30.7983 5.25494C16.7818 5.25494 5.43152 16.6306 5.43152 30.6471C5.43152 44.6636 16.7818 56.0393 30.7983 56.0393C44.8401 56.0393 56.2158 44.6636 56.2158 30.6471C56.2158 16.6306 44.8401 5.25494 30.7983 5.25494ZM30.8237 50.9608C19.6003 50.9608 10.5099 41.8704 10.5099 30.6471C10.5099 19.4238 19.6003 10.3334 30.8237 10.3334C42.047 10.3334 51.1374 19.4238 51.1374 30.6471C51.1374 41.8704 42.047 50.9608 30.8237 50.9608ZM30.265 17.951H30.1127C29.097 17.951 28.2845 18.7636 28.2845 19.7793V31.7644C28.2845 32.6531 28.7415 33.491 29.5287 33.9481L40.0664 40.2707C40.9298 40.7786 42.047 40.5246 42.5549 39.6613C43.0881 38.798 42.8088 37.6553 41.92 37.1475L32.0933 31.3073V19.7793C32.0933 18.7636 31.2807 17.951 30.265 17.951Z" fill="#B5B3B5"/>
</svg>
