<svg width="130" height="130" viewBox="0 0 130 130" fill="none" xmlns="http://www.w3.org/2000/svg">
<rect width="130" height="130" rx="20" fill="#FF6464"/>
<path d="M38.4444 96.1111C38.4444 101 42.4444 105 47.3333 105H82.8889C87.7778 105 91.7778 101 91.7778 96.1111V42.7778H38.4444V96.1111ZM49.3778 64.4667L55.6444 58.2L65.1111 67.6222L74.5333 58.2L80.8 64.4667L71.3778 73.8889L80.8 83.3111L74.5333 89.5778L65.1111 80.1556L55.6889 89.5778L49.4222 83.3111L58.8444 73.8889L49.3778 64.4667ZM80.6667 29.4444L76.2222 25H54L49.5556 29.4444H34V38.3333H96.2222V29.4444H80.6667Z" fill="white"/>
</svg>
