<svg width="280" height="220" viewBox="0 0 280 220" fill="none" xmlns="http://www.w3.org/2000/svg">
<g filter="url(#filter0_d_9_924)">
<path d="M174.546 41.9883H31.7254C19.7268 41.9883 10 51.7151 10 63.7137V185.274C10 197.273 19.7268 207 31.7254 207H174.546C186.544 207 196.271 197.273 196.271 185.274V63.7137C196.271 51.7151 186.544 41.9883 174.546 41.9883Z" fill="white"/>
</g>
<path d="M60.5767 80.8323H41.3719C39.1663 80.8323 37.3959 79.0468 37.3959 76.8562C37.3959 74.6507 39.1813 72.8802 41.3719 72.8802H60.5767C62.7823 72.8802 64.5527 74.6657 64.5527 76.8562C64.5527 79.0618 62.7672 80.8323 60.5767 80.8323Z" fill="#E9EBF5"/>
<path d="M164.899 80.8348H87.7796C85.574 80.8348 83.8036 79.0494 83.8036 76.8588C83.8036 74.6533 85.589 72.8828 87.7796 72.8828H164.899C167.104 72.8828 168.875 74.6683 168.875 76.8588C168.875 79.0644 167.089 80.8348 164.899 80.8348Z" fill="#E9EBF5"/>
<path d="M60.5767 99.8883H41.3719C39.1663 99.8883 37.3959 98.1028 37.3959 95.9123C37.3959 93.7067 39.1813 91.9363 41.3719 91.9363H60.5767C62.7823 91.9363 64.5527 93.7217 64.5527 95.9123C64.5527 98.1178 62.7672 99.8883 60.5767 99.8883Z" fill="#FFBD00"/>
<path d="M164.899 99.8883H87.7796C85.574 99.8883 83.8036 98.1028 83.8036 95.9123C83.8036 93.7067 85.589 91.9363 87.7796 91.9363H164.899C167.104 91.9363 168.875 93.7217 168.875 95.9123C168.875 98.1178 167.089 99.8883 164.899 99.8883Z" fill="#FFBD00"/>
<path d="M60.5767 118.942H41.3719C39.1663 118.942 37.3959 117.157 37.3959 114.966C37.3959 112.76 39.1813 110.99 41.3719 110.99H60.5767C62.7823 110.99 64.5527 112.775 64.5527 114.966C64.5527 117.172 62.7672 118.942 60.5767 118.942Z" fill="#80A7FF"/>
<path d="M164.899 118.942H87.7796C85.574 118.942 83.8036 117.157 83.8036 114.966C83.8036 112.76 85.589 110.99 87.7796 110.99H164.899C167.104 110.99 168.875 112.775 168.875 114.966C168.875 117.172 167.089 118.942 164.899 118.942Z" fill="#80A7FF"/>
<path d="M60.5767 137.998H41.3719C39.1663 137.998 37.3959 136.213 37.3959 134.022C37.3959 131.817 39.1813 130.046 41.3719 130.046H60.5767C62.7823 130.046 64.5527 131.832 64.5527 134.022C64.5527 136.228 62.7672 137.998 60.5767 137.998Z" fill="#E9EBF5"/>
<path d="M164.899 137.998H87.7796C85.574 137.998 83.8036 136.213 83.8036 134.022C83.8036 131.817 85.589 130.046 87.7796 130.046H164.899C167.104 130.046 168.875 131.832 168.875 134.022C168.875 136.228 167.089 137.998 164.899 137.998Z" fill="#E9EBF5"/>
<path d="M60.5767 157.052H41.3719C39.1663 157.052 37.3959 155.266 37.3959 153.076C37.3959 150.87 39.1813 149.1 41.3719 149.1H60.5767C62.7823 149.1 64.5527 150.885 64.5527 153.076C64.5527 155.281 62.7672 157.052 60.5767 157.052Z" fill="#546CFF"/>
<path d="M164.899 157.052H87.7796C85.574 157.052 83.8036 155.266 83.8036 153.076C83.8036 150.87 85.589 149.1 87.7796 149.1H164.899C167.104 149.1 168.875 150.885 168.875 153.076C168.875 155.281 167.089 157.052 164.899 157.052Z" fill="#546CFF"/>
<path d="M60.5767 176.108H41.3719C39.1663 176.108 37.3959 174.323 37.3959 172.132C37.3959 169.927 39.1813 168.156 41.3719 168.156H60.5767C62.7823 168.156 64.5527 169.942 64.5527 172.132C64.5527 174.338 62.7672 176.108 60.5767 176.108Z" fill="#E9EBF5"/>
<path d="M164.899 176.108H87.7796C85.574 176.108 83.8036 174.323 83.8036 172.132C83.8036 169.927 85.589 168.156 87.7796 168.156H164.899C167.104 168.156 168.875 169.942 168.875 172.132C168.875 174.338 167.089 176.108 164.899 176.108Z" fill="#E9EBF5"/>
<g filter="url(#filter1_d_9_924)">
<path d="M186.398 173.632C232.412 173.632 269.714 136.33 269.714 90.3159C269.714 44.3018 232.412 7 186.398 7C140.384 7 103.082 44.3018 103.082 90.3159C103.082 136.33 140.384 173.632 186.398 173.632Z" fill="url(#paint0_linear_9_924)"/>
</g>
<path d="M236.648 140.563C208.936 168.274 163.865 168.274 136.153 140.563C108.441 112.851 108.441 67.7794 136.153 40.0675C163.865 12.3556 208.936 12.3556 236.648 40.0675C264.36 67.7794 264.36 112.851 236.648 140.563Z" fill="url(#paint1_linear_9_924)"/>
<g style="mix-blend-mode:soft-light" opacity="0.9">
<path d="M236.677 40.0675C208.965 12.3556 163.894 12.3556 136.182 40.0675L236.677 140.562C264.389 112.851 264.389 67.7794 236.677 40.0675Z" fill="white"/>
</g>
<path d="M214.62 86.8505H189.969V52.0568C189.969 50.1963 188.468 48.6959 186.608 48.6959C184.747 48.6959 183.247 50.1963 183.247 52.0568V90.2113C183.247 92.0718 184.747 93.5721 186.608 93.5721H214.62C216.48 93.5721 217.981 92.0718 217.981 90.2113C217.981 88.3508 216.48 86.8505 214.62 86.8505Z" fill="url(#paint2_linear_9_924)"/>
<path d="M186.398 26.9113C185.813 26.9113 185.333 27.3914 185.333 27.9765V33.768C185.333 34.3531 185.813 34.8332 186.398 34.8332C186.983 34.8332 187.463 34.3531 187.463 33.768V27.9765C187.463 27.3914 186.983 26.9113 186.398 26.9113Z" fill="url(#paint3_linear_9_924)"/>
<path d="M186.398 145.799C185.813 145.799 185.333 146.279 185.333 146.865V152.656C185.333 153.241 185.813 153.721 186.398 153.721C186.983 153.721 187.463 153.241 187.463 152.656V146.865C187.463 146.279 186.983 145.799 186.398 145.799Z" fill="url(#paint4_linear_9_924)"/>
<path d="M129.849 89.2668H124.058C123.473 89.2668 122.992 89.747 122.992 90.3321C122.992 90.9173 123.473 91.3974 124.058 91.3974H129.849C130.434 91.3974 130.914 90.9173 130.914 90.3321C130.914 89.747 130.434 89.2668 129.849 89.2668Z" fill="url(#paint5_linear_9_924)"/>
<path d="M248.74 89.2668H242.949C242.364 89.2668 241.884 89.747 241.884 90.3321C241.884 90.9173 242.364 91.3974 242.949 91.3974H248.74C249.326 91.3974 249.806 90.9173 249.806 90.3321C249.806 89.747 249.326 89.2668 248.74 89.2668Z" fill="url(#paint6_linear_9_924)"/>
<path d="M143.068 45.4833C142.647 45.0632 141.987 45.0632 141.567 45.4833C141.147 45.9034 141.147 46.5636 141.567 46.9837L145.663 51.0797C146.083 51.4998 146.743 51.4998 147.164 51.0797C147.584 50.6596 147.584 49.9994 147.164 49.5793L143.068 45.4833Z" fill="url(#paint7_linear_9_924)"/>
<path d="M227.135 129.551C226.715 129.131 226.055 129.131 225.634 129.551C225.214 129.971 225.214 130.632 225.634 131.052L229.73 135.148C230.151 135.568 230.811 135.568 231.231 135.148C231.651 134.728 231.651 134.067 231.231 133.647L227.135 129.551Z" fill="url(#paint8_linear_9_924)"/>
<path d="M145.663 129.551L141.567 133.647C141.147 134.067 141.147 134.728 141.567 135.148C141.987 135.568 142.647 135.568 143.068 135.148L147.164 131.052C147.584 130.632 147.584 129.971 147.164 129.551C146.743 129.131 146.083 129.131 145.663 129.551Z" fill="url(#paint9_linear_9_924)"/>
<path d="M229.73 45.4833L225.634 49.5793C225.214 49.9994 225.214 50.6596 225.634 51.0797C226.055 51.4998 226.715 51.4998 227.135 51.0797L231.231 46.9837C231.651 46.5636 231.651 45.9034 231.231 45.4833C230.811 45.0632 230.151 45.0632 229.73 45.4833Z" fill="url(#paint10_linear_9_924)"/>
<path d="M186.398 26.9113C185.813 26.9113 185.333 27.3914 185.333 27.9765V33.768C185.333 34.3531 185.813 34.8332 186.398 34.8332C186.983 34.8332 187.463 34.3531 187.463 33.768V27.9765C187.463 27.3914 186.983 26.9113 186.398 26.9113Z" fill="url(#paint11_linear_9_924)"/>
<path d="M186.398 145.799C185.813 145.799 185.333 146.279 185.333 146.865V152.656C185.333 153.241 185.813 153.721 186.398 153.721C186.983 153.721 187.463 153.241 187.463 152.656V146.865C187.463 146.279 186.983 145.799 186.398 145.799Z" fill="url(#paint12_linear_9_924)"/>
<path d="M129.849 89.2668H124.058C123.473 89.2668 122.992 89.747 122.992 90.3321C122.992 90.9173 123.473 91.3974 124.058 91.3974H129.849C130.434 91.3974 130.914 90.9173 130.914 90.3321C130.914 89.747 130.434 89.2668 129.849 89.2668Z" fill="url(#paint13_linear_9_924)"/>
<path d="M248.74 89.2668H242.949C242.364 89.2668 241.884 89.747 241.884 90.3321C241.884 90.9173 242.364 91.3974 242.949 91.3974H248.74C249.326 91.3974 249.806 90.9173 249.806 90.3321C249.806 89.747 249.326 89.2668 248.74 89.2668Z" fill="url(#paint14_linear_9_924)"/>
<path d="M143.068 45.4833C142.647 45.0632 141.987 45.0632 141.567 45.4833C141.147 45.9034 141.147 46.5636 141.567 46.9837L145.663 51.0797C146.083 51.4998 146.743 51.4998 147.164 51.0797C147.584 50.6596 147.584 49.9994 147.164 49.5793L143.068 45.4833Z" fill="url(#paint15_linear_9_924)"/>
<path d="M227.135 129.551C226.715 129.131 226.055 129.131 225.634 129.551C225.214 129.971 225.214 130.632 225.634 131.052L229.73 135.148C230.151 135.568 230.811 135.568 231.231 135.148C231.651 134.728 231.651 134.067 231.231 133.647L227.135 129.551Z" fill="url(#paint16_linear_9_924)"/>
<path d="M145.663 129.551L141.567 133.647C141.147 134.067 141.147 134.728 141.567 135.148C141.987 135.568 142.647 135.568 143.068 135.148L147.164 131.052C147.584 130.632 147.584 129.971 147.164 129.551C146.743 129.131 146.083 129.131 145.663 129.551Z" fill="url(#paint17_linear_9_924)"/>
<path d="M229.73 45.4833L225.634 49.5793C225.214 49.9994 225.214 50.6596 225.634 51.0797C226.055 51.4998 226.715 51.4998 227.135 51.0797L231.231 46.9837C231.651 46.5636 231.651 45.9034 231.231 45.4833C230.811 45.0632 230.151 45.0632 229.73 45.4833Z" fill="url(#paint18_linear_9_924)"/>
<defs>
<filter id="filter0_d_9_924" x="0" y="34.9883" width="206.271" height="185.011" filterUnits="userSpaceOnUse" color-interpolation-filters="sRGB">
<feFlood flood-opacity="0" result="BackgroundImageFix"/>
<feColorMatrix in="SourceAlpha" type="matrix" values="0 0 0 0 0 0 0 0 0 0 0 0 0 0 0 0 0 0 127 0" result="hardAlpha"/>
<feOffset dy="3"/>
<feGaussianBlur stdDeviation="5"/>
<feColorMatrix type="matrix" values="0 0 0 0 0.329412 0 0 0 0 0.423529 0 0 0 0 1 0 0 0 0.5 0"/>
<feBlend mode="normal" in2="BackgroundImageFix" result="effect1_dropShadow_9_924"/>
<feBlend mode="normal" in="SourceGraphic" in2="effect1_dropShadow_9_924" result="shape"/>
</filter>
<filter id="filter1_d_9_924" x="93.0818" y="0" width="186.632" height="186.632" filterUnits="userSpaceOnUse" color-interpolation-filters="sRGB">
<feFlood flood-opacity="0" result="BackgroundImageFix"/>
<feColorMatrix in="SourceAlpha" type="matrix" values="0 0 0 0 0 0 0 0 0 0 0 0 0 0 0 0 0 0 127 0" result="hardAlpha"/>
<feOffset dy="3"/>
<feGaussianBlur stdDeviation="5"/>
<feColorMatrix type="matrix" values="0 0 0 0 0.329412 0 0 0 0 0.423529 0 0 0 0 1 0 0 0 0.5 0"/>
<feBlend mode="normal" in2="BackgroundImageFix" result="effect1_dropShadow_9_924"/>
<feBlend mode="normal" in="SourceGraphic" in2="effect1_dropShadow_9_924" result="shape"/>
</filter>
<linearGradient id="paint0_linear_9_924" x1="186.398" y1="173.632" x2="186.398" y2="7.015" gradientUnits="userSpaceOnUse">
<stop stop-color="#6C9CFF"/>
<stop offset="1" stop-color="#A4C4FF"/>
</linearGradient>
<linearGradient id="paint1_linear_9_924" x1="136.156" y1="140.56" x2="236.647" y2="40.0692" gradientUnits="userSpaceOnUse">
<stop stop-color="#AAC8FD"/>
<stop offset="0.86" stop-color="#D4E4FF"/>
</linearGradient>
<linearGradient id="paint2_linear_9_924" x1="200.621" y1="93.5721" x2="200.621" y2="48.6959" gradientUnits="userSpaceOnUse">
<stop stop-color="#1123A5"/>
<stop offset="0.37" stop-color="#2A3EC7"/>
<stop offset="1" stop-color="#546CFF"/>
</linearGradient>
<linearGradient id="paint3_linear_9_924" x1="186.398" y1="34.8332" x2="186.398" y2="26.9113" gradientUnits="userSpaceOnUse">
<stop stop-color="#FF8F00"/>
<stop offset="1" stop-color="#FFBD00"/>
</linearGradient>
<linearGradient id="paint4_linear_9_924" x1="-13.3017" y1="153.721" x2="-11.8014" y2="145.799" gradientUnits="userSpaceOnUse">
<stop stop-color="#FF8F00"/>
<stop offset="1" stop-color="#FFBD00"/>
</linearGradient>
<linearGradient id="paint5_linear_9_924" x1="126.953" y1="91.3824" x2="126.953" y2="89.2668" gradientUnits="userSpaceOnUse">
<stop stop-color="#FF8F00"/>
<stop offset="1" stop-color="#FFBD00"/>
</linearGradient>
<linearGradient id="paint6_linear_9_924" x1="245.845" y1="91.3824" x2="245.845" y2="89.2668" gradientUnits="userSpaceOnUse">
<stop stop-color="#FF8F00"/>
<stop offset="1" stop-color="#FFBD00"/>
</linearGradient>
<linearGradient id="paint7_linear_9_924" x1="144.358" y1="51.3948" x2="144.358" y2="45.1682" gradientUnits="userSpaceOnUse">
<stop stop-color="#FF8F00"/>
<stop offset="1" stop-color="#FFBD00"/>
</linearGradient>
<linearGradient id="paint8_linear_9_924" x1="228.44" y1="135.463" x2="228.44" y2="129.251" gradientUnits="userSpaceOnUse">
<stop stop-color="#FF8F00"/>
<stop offset="1" stop-color="#FFBD00"/>
</linearGradient>
<linearGradient id="paint9_linear_9_924" x1="144.358" y1="135.463" x2="144.358" y2="129.251" gradientUnits="userSpaceOnUse">
<stop stop-color="#FF8F00"/>
<stop offset="1" stop-color="#FFBD00"/>
</linearGradient>
<linearGradient id="paint10_linear_9_924" x1="228.44" y1="51.3948" x2="228.44" y2="45.1682" gradientUnits="userSpaceOnUse">
<stop stop-color="#FF8F00"/>
<stop offset="1" stop-color="#FFBD00"/>
</linearGradient>
<linearGradient id="paint11_linear_9_924" x1="186.398" y1="153.723" x2="186.398" y2="26.9113" gradientUnits="userSpaceOnUse">
<stop stop-color="#1123A5"/>
<stop offset="0.37" stop-color="#2A3EC7"/>
<stop offset="1" stop-color="#546CFF"/>
</linearGradient>
<linearGradient id="paint12_linear_9_924" x1="186.398" y1="153.721" x2="186.398" y2="26.9095" gradientUnits="userSpaceOnUse">
<stop stop-color="#1123A5"/>
<stop offset="0.37" stop-color="#2A3EC7"/>
<stop offset="1" stop-color="#546CFF"/>
</linearGradient>
<linearGradient id="paint13_linear_9_924" x1="186.398" y1="153.723" x2="186.398" y2="26.9113" gradientUnits="userSpaceOnUse">
<stop stop-color="#1123A5"/>
<stop offset="0.37" stop-color="#2A3EC7"/>
<stop offset="1" stop-color="#546CFF"/>
</linearGradient>
<linearGradient id="paint14_linear_9_924" x1="186.4" y1="153.723" x2="186.4" y2="26.9113" gradientUnits="userSpaceOnUse">
<stop stop-color="#1123A5"/>
<stop offset="0.37" stop-color="#2A3EC7"/>
<stop offset="1" stop-color="#546CFF"/>
</linearGradient>
<linearGradient id="paint15_linear_9_924" x1="186.398" y1="153.72" x2="186.398" y2="26.9087" gradientUnits="userSpaceOnUse">
<stop stop-color="#1123A5"/>
<stop offset="0.37" stop-color="#2A3EC7"/>
<stop offset="1" stop-color="#546CFF"/>
</linearGradient>
<linearGradient id="paint16_linear_9_924" x1="186.4" y1="153.722" x2="186.4" y2="26.9106" gradientUnits="userSpaceOnUse">
<stop stop-color="#1123A5"/>
<stop offset="0.37" stop-color="#2A3EC7"/>
<stop offset="1" stop-color="#546CFF"/>
</linearGradient>
<linearGradient id="paint17_linear_9_924" x1="186.398" y1="153.722" x2="186.398" y2="26.9106" gradientUnits="userSpaceOnUse">
<stop stop-color="#1123A5"/>
<stop offset="0.37" stop-color="#2A3EC7"/>
<stop offset="1" stop-color="#546CFF"/>
</linearGradient>
<linearGradient id="paint18_linear_9_924" x1="186.4" y1="153.72" x2="186.4" y2="26.9087" gradientUnits="userSpaceOnUse">
<stop stop-color="#1123A5"/>
<stop offset="0.37" stop-color="#2A3EC7"/>
<stop offset="1" stop-color="#546CFF"/>
</linearGradient>
</defs>
</svg>
