<?xml version="1.0" encoding="UTF-8"?>
<svg id="Capa_2" data-name="Capa 2" xmlns="http://www.w3.org/2000/svg" viewBox="0 0 282.89 354.46">
  <defs>
    <style>
      .cls-1 {
        opacity: .9;
      }

      .cls-2 {
        fill: #9e42a5;
      }
    </style>
  </defs>
  <g id="Objects">
    <g id="element">
      <g id="women_shape" data-name="women shape" class="cls-1">
        <g>
          <path class="cls-2" d="m1.71,187.85c7.42,4.45,14.84,7.72,14.84,13.36s-7.72,9.5-5.04,13.06c2.67,3.56,9.2,4.45,10.69,6.83,1.48,2.37-5.94,6.23-2.67,10.09,3.26,3.86,8.31-.59,8.01,11.87-.3,12.47,5.93,20.48,21.67,17.81,15.73-2.67,39.18-8.61,51.05-13.36,11.87-4.75,20.78-10.09,22.26-5.34.91,2.92,4.07,31.66.84,57.91.54-3.04,1.27-6.13,2.23-9.26,14.25-46.52,63.94-80.04-11.67-121.35-55.5-30.32-79.71-64.96-89.79-91.12.01.06.03.13.04.19,0,0-9.1,34.23-6.73,47.29,1.54,8.47,5.62,13.82,6.21,19.62-3.66,2.12-9.66,4.49-13.19-.03,1.97,3.69,7.81,5.73,13.14,3.2-.31,2.2-1.2,4.54-2.99,7.19-7.62,11.28-26.32,27.6-18.9,32.05Z"/>
          <path class="cls-2" d="m35.01,44.04s40.02,45.04,109.07,40.4c69.06-4.64,108.09,68.62,44.86,155.47-41.13,56.49-32.14,91.87-7.58,114.54-34.46-19.94-50.01-60.38-3.57-130.93,50.54-76.78.18-125.18-47.91-121.56-39.63,2.98-82.28-27.17-94.88-57.92Z"/>
        </g>
        <path class="cls-2" d="m233.44,150.99S219.79-23.66,47.62,24.65c95.69-67.81,209.87,14.1,185.82,126.34Z"/>
        <path class="cls-2" d="m119.06.03S259.35,0,280.13,143.13c20.08,138.28-75.86,206.55-75.86,206.55,0,0,71.7-94.52,55.08-200.45C239.8,24.65,125.29-.99,119.06.03Z"/>
        <path class="cls-2" d="m35.01,72.15s13.52,50.12,65.56,69.66c39.39,14.8,65.22,24.6,83.63,57.43-2.8-21.83-18.01-59.07-69.77-70.33-39.73-8.65-69.24-41.71-79.42-56.76Z"/>
      </g>
    </g>
  </g>
</svg>