<svg width="48" height="48" viewBox="0 0 48 48" fill="none" xmlns="http://www.w3.org/2000/svg">
<path fill-rule="evenodd" clip-rule="evenodd" d="M15.5231 0.872133C13.3261 -0.306274 10.6704 -0.289218 8.46049 0.915493C7.49951 1.43939 6.6421 2.29787 5.53314 3.40819L5.12901 3.81245C3.43669 5.50413 2.31714 6.62325 1.51517 8.02717C-0.237417 11.0952 -0.495401 15.3356 0.87608 18.5564C1.50344 20.0297 2.38578 21.1315 3.70722 22.7815L3.88869 23.0082C6.59188 26.3851 9.99481 30.6357 13.8253 34.4664C17.4112 38.0523 21.1133 41.0112 24.3381 43.5885L25.2184 44.2928C26.8685 45.6141 27.9704 46.4965 29.4434 47.124C32.6645 48.4954 36.9047 48.2373 39.9727 46.4848C41.3767 45.6829 42.4957 44.5635 44.1874 42.8712L44.5917 42.4669C45.7021 41.3579 46.5605 40.5005 47.0845 39.5395C48.2893 37.3296 48.3063 34.6739 47.1277 32.4768C46.6154 31.5216 45.7669 30.6741 44.6709 29.5795L42.0239 26.9328C41.9122 26.8208 41.8218 26.7307 41.7335 26.6483C39.6109 24.6704 36.4621 24.2496 33.8567 25.5923C33.7482 25.6483 33.6341 25.7123 33.4938 25.7907L33.4685 25.8051C33.2394 25.9331 33.1637 25.9755 33.0965 26.0101C31.325 26.9317 29.2024 26.7992 27.5861 25.6685C27.525 25.6259 27.456 25.5747 27.2482 25.4192L26.9024 25.1608C26.5736 24.9152 26.4314 24.8088 26.2933 24.7011C25.1762 23.8294 24.1706 22.8239 23.2989 21.7066C23.1912 21.5686 23.0849 21.4264 22.8391 21.0975L22.5807 20.7518C22.4254 20.5439 22.3742 20.4751 22.3315 20.4139C21.2009 18.7977 21.0683 16.6748 21.9898 14.9035C22.0246 14.8364 22.0669 14.7605 22.195 14.5316L22.2104 14.5041C22.2887 14.3642 22.3518 14.2516 22.4077 14.1431C23.7505 11.5379 23.3297 8.38898 21.3517 6.2664C21.2694 6.17802 21.1775 6.08616 21.0655 5.97418L18.4207 3.32923C17.3259 2.23307 16.4785 1.38456 15.5231 0.872133ZM10.3685 4.46744C11.3739 3.91933 12.5804 3.91243 13.5772 4.44701C13.7552 4.54251 13.9482 4.68411 14.275 4.98147C14.6021 5.27917 15.0548 5.72485 15.7524 6.4225L18.1642 8.83434C18.3089 8.97896 18.3454 9.01597 18.3735 9.0461C19.1939 9.92648 19.3702 11.2347 18.8111 12.3193C18.792 12.3565 18.7665 12.4027 18.6654 12.5831L18.6499 12.6109C18.5433 12.8013 18.4681 12.9357 18.4003 13.0659C16.7807 16.1792 17.012 19.9144 19.0033 22.761C19.0864 22.8799 19.1775 23.0018 19.3064 23.1743L19.5986 23.5654C19.826 23.8697 19.9582 24.0464 20.0943 24.2211C21.1669 25.5957 22.4042 26.8331 23.779 27.9056C23.9534 28.0416 24.1312 28.1747 24.4352 28.4019L24.8234 28.6917L24.8256 28.6933C24.9981 28.8224 25.12 28.9136 25.2389 28.9968C28.0856 30.988 31.8208 31.2192 34.9341 29.5997C35.0642 29.532 35.2007 29.4555 35.3911 29.3491L35.4167 29.3347C35.5973 29.2336 35.6434 29.208 35.6805 29.1888C36.7653 28.6299 38.0735 28.8061 38.9538 29.6264C38.9839 29.6547 39.021 29.6912 39.1655 29.8357L41.5775 32.2477C42.2751 32.9453 42.7207 33.3979 43.0183 33.7251C43.3159 34.0517 43.4575 34.2448 43.553 34.4229C44.0874 35.4195 44.0805 36.6261 43.5325 37.6315C43.4343 37.8115 43.2901 38.0067 42.9885 38.3373C42.6866 38.6683 42.2351 39.1267 41.5287 39.8331C39.5834 41.7784 38.8618 42.4765 37.9935 42.9728C36.0309 44.0939 33.1234 44.2699 31.0661 43.3939C30.1501 43.0037 29.472 42.48 27.6056 40.9859C24.2936 38.3344 20.4258 35.0139 16.706 31.2941C12.9862 27.5741 9.66551 23.7064 7.01423 20.3946C5.51999 18.528 4.99623 17.8499 4.60615 16.9338C3.73008 14.8764 3.90621 11.9691 5.02727 10.0065C5.52333 9.13813 6.22165 8.41664 8.16703 6.47125C8.87337 5.7649 9.33169 5.31341 9.66271 5.01152C9.9934 4.70992 10.1887 4.56549 10.3685 4.46744Z" fill="#B5B3B5"/>
</svg>
