<svg width="288" height="288" viewBox="0 0 288 288" fill="none" xmlns="http://www.w3.org/2000/svg">
<path d="M179.849 143.88C206.347 143.88 227.809 122.417 227.809 95.9197C227.809 69.4219 206.347 47.9598 179.849 47.9598C153.352 47.9598 131.89 69.4219 131.89 95.9197C131.89 122.417 153.352 143.88 179.849 143.88ZM71.9397 119.9V95.9197C71.9397 89.3252 66.5442 83.9297 59.9498 83.9297C53.3553 83.9297 47.9598 89.3252 47.9598 95.9197V119.9H23.9799C17.3854 119.9 11.9899 125.295 11.9899 131.89C11.9899 138.484 17.3854 143.88 23.9799 143.88H47.9598V167.859C47.9598 174.454 53.3553 179.849 59.9498 179.849C66.5442 179.849 71.9397 174.454 71.9397 167.859V143.88H95.9196C102.514 143.88 107.91 138.484 107.91 131.89C107.91 125.295 102.514 119.9 95.9196 119.9H71.9397ZM179.849 167.859C147.836 167.859 83.9297 183.926 83.9297 215.819V227.809C83.9297 234.404 89.3252 239.799 95.9196 239.799H263.779C270.374 239.799 275.769 234.404 275.769 227.809V215.819C275.769 183.926 211.863 167.859 179.849 167.859Z" fill="#9E42A5"/>
</svg>
