<svg width="18" height="18" viewBox="0 0 18 18" fill="none" xmlns="http://www.w3.org/2000/svg">
<path fill-rule="evenodd" clip-rule="evenodd" d="M7.78716 0.30631C8.54417 -0.102103 9.4558 -0.102103 10.2128 0.30631C10.6773 0.5569 10.9959 1.00745 11.2705 1.4931C11.5496 1.98655 11.8557 2.65477 12.2362 3.48551L12.2515 3.51897C12.465 3.98521 12.5142 4.07453 12.5695 4.1376C12.6432 4.22168 12.7348 4.28823 12.8376 4.33241C12.9146 4.36555 13.0148 4.38467 13.5241 4.44374L13.6758 4.46133C14.5346 4.56092 15.2255 4.64104 15.7528 4.74591C16.2714 4.84907 16.7724 4.99934 17.1446 5.33101C17.8333 5.94469 18.1378 6.882 17.9413 7.78335C17.8351 8.2705 17.5181 8.6866 17.1591 9.075C16.7942 9.4698 16.2823 9.9408 15.646 10.5263L15.6204 10.5498C15.2256 10.9131 15.1522 10.9916 15.1087 11.0662C15.0431 11.179 15.008 11.3069 15.0067 11.4373C15.0059 11.5237 15.0289 11.6287 15.1826 12.1427L15.2194 12.2658C15.5219 13.278 15.7644 14.0897 15.8912 14.725C16.0154 15.348 16.0691 15.9748 15.814 16.5198C15.4996 17.1914 14.9089 17.6932 14.1954 17.895C13.6165 18.0587 13.0068 17.9043 12.4121 17.6809C11.8058 17.4531 11.0442 17.0824 10.0944 16.6202L9.7973 16.4756C9.3002 16.2336 9.1992 16.1943 9.108 16.1819C9.0388 16.1725 8.96857 16.1727 8.89942 16.1827C8.80827 16.1959 8.70762 16.236 8.21251 16.4819L7.95 16.6122C6.99018 17.0889 6.22084 17.471 5.60835 17.7063C5.00811 17.937 4.39184 18.0974 3.80608 17.9322C3.10046 17.7331 2.51435 17.2404 2.19686 16.5794C1.9333 16.0307 1.9853 15.3959 2.10914 14.7648C2.23551 14.1208 2.47943 13.2971 2.78375 12.2693L2.82132 12.1425C2.97348 11.6286 2.99619 11.5237 2.99518 11.4374C2.99367 11.3074 2.9585 11.1801 2.89312 11.0679C2.84967 10.9933 2.77636 10.9149 2.38201 10.5521L2.35636 10.5285C1.71907 9.9421 1.2064 9.4703 0.840961 9.0749C0.481481 8.68584 0.164121 8.26901 0.058201 7.78097C-0.137076 6.88114 0.166771 5.94581 0.853551 5.33263C1.22605 5.00006 1.72776 4.84943 2.24719 4.74604C2.77524 4.64095 3.46722 4.56071 4.32742 4.46096L4.47593 4.44374C4.98525 4.38467 5.08536 4.36555 5.16243 4.33241C5.26517 4.28823 5.35675 4.22168 5.4305 4.1376C5.48583 4.07453 5.53495 3.98521 5.7485 3.51897L5.76382 3.48553C6.14432 2.65478 6.45037 1.98656 6.72945 1.4931C7.00411 1.00745 7.32267 0.5569 7.78716 0.30631ZM9.4994 1.62924C9.1877 1.46107 8.8123 1.46107 8.50059 1.62924C8.43332 1.66553 8.28926 1.78798 8.03749 2.23316C7.79387 2.66393 7.51414 3.27306 7.11476 4.14501C7.10351 4.16958 7.09238 4.19396 7.08134 4.21814C6.92089 4.56951 6.77976 4.87857 6.56016 5.12892C6.33891 5.38115 6.06416 5.58081 5.75595 5.71333C5.45005 5.84486 5.11257 5.8836 4.72888 5.92765C4.70248 5.93068 4.67585 5.93374 4.64901 5.93685L4.53511 5.95006C3.63228 6.05476 3.00141 6.12852 2.54048 6.22026C2.06387 6.31512 1.90781 6.40622 1.85431 6.45399C1.57151 6.70647 1.4464 7.09161 1.52681 7.46213C1.54202 7.53222 1.61474 7.69767 1.94458 8.05462C2.26357 8.39982 2.7306 8.83038 3.39948 9.4459C3.42037 9.4651 3.44111 9.4841 3.46167 9.503C3.75831 9.7753 4.01878 10.0144 4.19168 10.3113C4.38784 10.6481 4.49334 11.0301 4.49789 11.4198C4.5019 11.7634 4.4011 12.1023 4.2863 12.4883C4.27835 12.5151 4.27032 12.5421 4.26226 12.5693L4.23645 12.6565C3.91768 13.733 3.69485 14.4885 3.58381 15.0543C3.46863 15.6413 3.51399 15.8505 3.55145 15.9285C3.68218 16.2006 3.92352 16.4035 4.21407 16.4855C4.29731 16.509 4.51118 16.5177 5.06947 16.3032C5.60765 16.0964 6.31331 15.7469 7.31875 15.2475L7.54417 15.1356C7.57009 15.1227 7.59577 15.1099 7.62125 15.0972C7.99467 14.9112 8.32421 14.747 8.68492 14.695C8.89235 14.6651 9.1029 14.6642 9.3106 14.6925C9.6717 14.7416 10.0025 14.9032 10.3774 15.0862C10.403 15.0987 10.4288 15.1113 10.4548 15.124L10.7151 15.2506C11.7102 15.735 12.4083 16.0738 12.9406 16.2738C13.4923 16.4811 13.7039 16.472 13.7865 16.4486C14.0803 16.3655 14.3235 16.1589 14.453 15.8823C14.4894 15.8045 14.5327 15.5972 14.4174 15.019C14.3062 14.4613 14.0847 13.7175 13.7677 12.6569L13.7427 12.5732C13.7346 12.546 13.7265 12.519 13.7184 12.4922C13.6025 12.1061 13.5008 11.7671 13.504 11.4233C13.5077 11.0319 13.6131 10.6482 13.81 10.3099C13.983 10.0128 14.2437 9.7734 14.5407 9.5009C14.5613 9.482 14.582 9.4629 14.6029 9.4436C15.2708 8.82913 15.7371 8.39924 16.0556 8.05461C16.385 7.69824 16.4577 7.53305 16.473 7.4631C16.5539 7.09196 16.4285 6.70601 16.1449 6.45332C16.0915 6.40569 15.9356 6.31482 15.4597 6.22016C14.9994 6.12861 14.3696 6.05497 13.4682 5.95044L13.351 5.93685C13.3241 5.93374 13.2975 5.93068 13.2711 5.92765C12.8874 5.8836 12.55 5.84486 12.244 5.71333C11.9358 5.58081 11.6611 5.38115 11.4398 5.12892C11.2202 4.87857 11.0791 4.56951 10.9187 4.21814C10.9076 4.19396 10.8965 4.16958 10.8852 4.14501C10.4859 3.27306 10.2061 2.66393 9.9625 2.23316C9.7107 1.78798 9.5667 1.66553 9.4994 1.62924Z" fill="#B5B3B5"/>
</svg>
