<svg width="18" height="18" viewBox="0 0 18 18" fill="none" xmlns="http://www.w3.org/2000/svg">
<path fill-rule="evenodd" clip-rule="evenodd" d="M8.5484 0.048021C8.84609 -0.016007 9.1539 -0.016007 9.4516 0.048021C10.1138 0.190471 10.5418 0.712921 10.8774 1.26471C11.2169 1.82301 11.5741 2.6082 12.013 3.57276L12.034 3.61898C12.3301 4.2699 12.4006 4.38912 12.4881 4.46687C12.5222 4.49716 12.5591 4.52414 12.5982 4.54743C12.6987 4.60722 12.8331 4.63783 13.5394 4.72029L13.7123 4.74047C14.7058 4.85645 15.5148 4.95088 16.1183 5.09312C16.7139 5.23349 17.3128 5.46182 17.6587 6.00476C17.8592 6.31946 17.9758 6.68086 17.9973 7.05412C18.0344 7.6981 17.6832 8.23726 17.2833 8.70332C16.8781 9.1756 16.2787 9.7308 15.5426 10.4127L15.5074 10.4453C14.9576 10.9546 14.8619 11.065 14.8156 11.1773C14.7924 11.2334 14.7764 11.2922 14.7678 11.3523C14.7506 11.4726 14.7768 11.6168 14.9908 12.3376L15.0349 12.4861C15.3762 13.636 15.6531 14.5685 15.7701 15.2879C15.8854 15.9965 15.8931 16.7507 15.3854 17.3175C15.2571 17.4608 15.1104 17.5863 14.9492 17.6907C14.3116 18.1034 13.5737 17.9739 12.8978 17.7448C12.2117 17.5121 11.3426 17.0862 10.2708 16.5611L9.9424 16.4002C9.271 16.0712 9.1367 16.0239 9.0119 16.0229L8.9951 16.023C8.87029 16.0249 8.73637 16.0734 8.06759 16.4077L7.77201 16.5555C6.68947 17.0968 5.81212 17.5354 5.11951 17.776C4.4379 18.0128 3.69217 18.1488 3.04782 17.7301C2.89518 17.6309 2.75556 17.5128 2.63227 17.3784C2.11181 16.8113 2.11652 16.0482 2.23087 15.3314C2.34707 14.603 2.62524 13.6573 2.96848 12.4904L3.01356 12.3371C3.22544 11.6167 3.25124 11.4727 3.23381 11.3525C3.22515 11.2928 3.20913 11.2344 3.18613 11.1787C3.13981 11.0666 3.04423 10.9563 2.49512 10.4477L2.45991 10.415C1.72271 9.7321 1.12245 9.1761 0.716726 8.70313C0.316336 8.23635 -0.0351485 7.69631 0.00281648 7.05136C0.0246665 6.68 0.140686 6.32047 0.339776 6.00709C0.685556 5.46285 1.28516 5.23397 1.88156 5.09332C2.48589 4.95079 3.29609 4.85622 4.29114 4.74007L4.46057 4.72029C5.16688 4.63783 5.30126 4.60722 5.40174 4.54743C5.44089 4.52414 5.47776 4.49716 5.51185 4.46687C5.59938 4.38912 5.66981 4.2699 5.96596 3.61898L5.98695 3.57285C6.42579 2.60825 6.78303 1.82302 7.12259 1.26471C7.45818 0.712921 7.88613 0.190471 8.5484 0.048021Z" fill="#FFBD00"/>
</svg>
