<svg width="58" height="72" viewBox="0 0 58 72" fill="none" xmlns="http://www.w3.org/2000/svg">
<path fill-rule="evenodd" clip-rule="evenodd" d="M24.1129 1.05769e-05H33.4868C34.6367 -0.000133134 35.7163 -0.000268047 36.621 0.105013C37.6286 0.222267 38.6881 0.493348 39.6767 1.21969C40.6656 1.94603 41.2528 2.88461 41.6804 3.82187C42.0646 4.66333 42.4058 5.70722 42.7694 6.81898L44.0701 10.7961C44.2008 10.8349 44.33 10.8755 44.4582 10.9179C50.2481 12.8354 54.7877 17.4622 56.669 23.3636C57.6018 26.2891 57.6011 29.7913 57.6 35.4179V36.5818C57.6011 42.2086 57.6018 45.7106 56.669 48.6364C54.7877 54.5378 50.2481 59.1646 44.4582 61.0819C44.33 61.1244 44.2008 61.1651 44.0701 61.2036L42.7694 65.1809C42.4062 66.2926 42.0649 67.3366 41.6808 68.1782C41.2528 69.1153 40.6656 70.0538 39.6767 70.7803C38.6881 71.5068 37.6286 71.7779 36.621 71.8949C35.7163 72.0004 34.6367 72 33.4868 72H24.1131C22.9632 72 21.8836 72.0004 20.9788 71.8949C19.9711 71.7779 18.9118 71.5068 17.9231 70.7803C16.9344 70.0538 16.3471 69.1153 15.9193 68.1782C15.5352 67.3366 15.1939 66.2926 14.8305 65.1809L13.5298 61.2036C13.3992 61.1651 13.2699 61.1244 13.1418 61.0819C7.35174 59.1646 2.81228 54.5378 0.930993 48.6364C-0.00165943 45.7106 -0.000975348 42.2086 6.86523e-05 36.5818V35.4181C-0.000975348 29.7913 -0.00165943 26.2892 0.930993 23.3636C2.81228 17.4622 7.35174 12.8354 13.1418 10.9179C13.2699 10.8755 13.3992 10.835 13.5297 10.7963L14.8303 6.81926C15.1938 5.70744 15.535 4.6634 15.9192 3.82187C16.3469 2.88462 16.9343 1.94603 17.923 1.21969C18.9117 0.493348 19.971 0.222267 20.9787 0.105013C21.8834 -0.000268047 22.9631 -0.000133134 24.1129 1.05769e-05ZM19.5116 61.9801L19.945 63.3056C20.3633 64.5847 20.6088 65.322 20.8462 65.8422C20.9533 66.0766 21.0268 66.1928 21.0662 66.2465C21.0845 66.2713 21.0969 66.2843 21.0969 66.2843L21.1004 66.2872L21.1043 66.2897C21.1043 66.2897 21.1202 66.2976 21.1491 66.3073C21.2117 66.3286 21.3429 66.3628 21.5952 66.3923C22.1543 66.4574 22.9182 66.4614 24.241 66.4614H33.359C34.6817 66.4614 35.4456 66.4574 36.0047 66.3923C36.257 66.3628 36.3881 66.3286 36.4507 66.3073C36.4799 66.2976 36.4957 66.2897 36.4957 66.2897L36.4997 66.2872L36.5029 66.2843C36.5029 66.2843 36.5155 66.2713 36.5335 66.2465C36.5731 66.1928 36.6466 66.0766 36.7538 65.8422C36.9911 65.322 37.2366 64.5847 37.6549 63.3056L38.0884 61.9801C36.5134 62.0316 34.722 62.0312 32.6315 62.0309H24.9687C22.8783 62.0312 21.0867 62.0316 19.5116 61.9801ZM37.6549 8.69436L38.0884 10.0197C36.513 9.96836 34.7216 9.96872 32.6311 9.96912H24.9687C22.8782 9.96872 21.0866 9.96836 19.5115 10.0197L19.9449 8.69436C20.3632 7.41535 20.6087 6.67804 20.846 6.15798C20.9531 5.92333 21.0267 5.80734 21.0661 5.75352C21.0844 5.72861 21.0968 5.71576 21.0968 5.71576L21.1002 5.71273L21.1042 5.71032C21.1042 5.71032 21.12 5.70236 21.149 5.69261C21.2116 5.67155 21.3428 5.6371 21.5951 5.60772C22.1542 5.54267 22.9181 5.53849 24.2408 5.53849H33.3587C34.6817 5.53849 35.4456 5.54267 36.0047 5.60772C36.257 5.6371 36.3881 5.67155 36.4507 5.69261C36.4795 5.70236 36.4954 5.71032 36.4954 5.71032L36.4993 5.71273L36.5029 5.71576C36.5029 5.71576 36.5155 5.72861 36.5335 5.75352C36.5731 5.80734 36.6466 5.92333 36.7535 6.15798C36.9911 6.67804 37.2366 7.41535 37.6549 8.69436ZM14.821 16.1853C16.7641 15.5418 19.2597 15.5076 25.5397 15.5076H32.0605C38.3404 15.5076 40.8359 15.5418 42.7792 16.1853C46.9148 17.555 50.1574 20.8598 51.5009 25.0751C52.1323 27.0557 52.1658 29.5992 52.1658 36C52.1658 42.4008 52.1323 44.9442 51.5009 46.9249C50.1574 51.1402 46.9148 54.445 42.7792 55.8148C40.8359 56.4581 38.3404 56.4923 32.0605 56.4923H25.5397C19.2597 56.4923 16.7641 56.4581 14.821 55.8148C10.6852 54.445 7.44274 51.1402 6.09897 46.9249C5.4676 44.9442 5.43409 42.4008 5.43409 36C5.43409 29.5992 5.4676 27.0557 6.09897 25.0751C7.44274 20.8598 10.6852 17.555 14.821 16.1853ZM31.5169 26.4979C31.5169 24.9685 30.3005 23.7287 28.7998 23.7287C27.2993 23.7287 26.0829 24.9685 26.0829 26.4979V37.575C26.0829 39.1043 27.2993 40.3441 28.7998 40.3441L36.9497 40.3448C38.4505 40.3456 39.6673 39.1061 39.6677 37.5768C39.668 36.0472 38.4523 34.807 36.9515 34.8065L31.5169 34.8056V26.4979Z" fill="#B5B3B5"/>
</svg>
