<?xml version="1.0" encoding="UTF-8" standalone="no"?>
<svg width="513" height="500" viewBox="0 0 513 500" fill="none" xmlns="http://www.w3.org/2000/svg">
	<path d="M218.001 5.14612C216.796 4.43507 215.433 4.77083 214.406 5.60039C206.664 11.9208 198.783 18.0832 191.179 24.5616C190.329 25.2726 189.599 26.122 189.105 27.07C187.367 26.5367 185.154 27.4255 185.234 29.7759C185.372 34.3582 189.322 37.5777 193.727 37.9134C198.447 38.269 202.555 35.0495 205.715 31.9091C212.214 25.4504 216.914 17.2931 219.364 8.48408C219.719 7.22 219.127 5.79791 218.001 5.14612Z" fill="#F8D9FF"/>
	<path fill-rule="evenodd" clip-rule="evenodd" d="M90.5848 338.211C96.6484 326.637 101.31 303.824 114.168 297.405C121.397 293.81 130.146 296.635 131.016 304.595C132.536 318.559 112.726 332.799 102.416 320.83C98.505 330.844 94.1598 341.055 91.2761 353.084C90.2688 357.212 89.0442 361.933 89.5972 365.666C90.1898 369.537 93.5672 374.692 95.8386 379.057C102.258 391.421 110.376 405.445 117.762 415.933C118.414 402.304 109.862 392.27 111.146 376.035C112.114 363.809 118.454 355.434 121.831 343.327C122.72 340.186 123.234 333.609 126.334 333.491C129.83 333.352 130.897 342.715 131.687 349.213C132.635 357.034 132.635 362.92 131.964 368.747C130.443 381.921 123.51 390.848 122.661 400.507C121.95 408.644 122.463 420.199 124.419 425.591C125.781 429.324 130.383 434.084 133.899 438.014C141.563 446.547 146.876 451.801 156.06 459.543C159.102 462.111 171.505 469.913 164.158 473.369C160.247 475.206 154.065 468.155 151.972 466.101C145.967 460.274 137.672 450.892 132.596 444.532C129.574 440.72 127.697 437.086 124.063 433.037C119.659 428.119 112.035 423.359 105.28 421.226C96.5694 418.461 85.9828 417.592 78.6748 414.629C62.4788 408.091 53.9265 394.384 44.2287 379.788C42.8066 377.635 39.6859 375.245 41.3253 371.927C45.5915 370.307 48.8307 373.862 52.0699 375.482C62.222 380.617 73.974 383.501 83.4349 389.9C95.8781 398.334 103.265 411.271 114.563 420.14C103.897 402.482 92.9549 385.14 84.4817 365.231C76.6799 358.14 66.5081 355.889 57.778 351.208C49.5023 346.764 40.6537 341.312 34.2741 333.886C25.7416 323.931 20.942 309.908 15.5895 296.497C11.6195 286.542 7.21495 277.259 2.61292 267.383C1.30934 264.598 -1.5546 260.747 1.07231 257.646C4.13375 257.251 6.30639 259.818 8.10375 261.734C19.6582 274.099 34.5901 285.495 44.9397 299.795C57.067 316.584 62.6566 338.112 78.26 352.314C70.3596 335.466 64.77 317.176 57.936 297.267C54.6573 287.727 50.9244 279.609 46.4013 271.393C41.7203 262.9 37.9873 253.952 37.1578 243.168C35.6567 223.575 40.713 204.041 42.8461 185.889C43.2016 182.927 43.7547 179.628 44.1102 176.567C44.4065 173.96 43.5769 170.444 46.3223 168.627C51.3391 169.496 51.6552 176.271 53.4723 180.616C55.2696 184.941 57.6595 189.326 59.6939 193.553C66.271 207.063 74.4481 218.025 73.3815 238.467C72.9272 247.276 70.2411 254.861 67.6734 262.268C65.2638 269.2 61.195 276.153 60.0692 283.777C59.1804 289.781 62.9924 299.222 65.0465 305.562C70.8336 323.378 77.549 339.515 84.8569 355.968C85.7458 334.972 89.7355 316.998 96.6286 301.849C93.8635 299.775 91.1378 299.617 88.6492 297.306C78.1218 287.49 80.6104 259.542 93.192 257.251C104.608 255.177 107.729 269.141 107.018 280.775C106.425 290.611 102.218 299.341 98.584 308.328C94.693 317.927 92.6389 328.276 90.644 337.737C90.644 337.895 90.644 338.053 90.644 338.211H90.5848ZM41.2463 239.415C41.7006 256.402 49.3443 267.482 56.2572 280.123C60.6617 265.23 69.135 252.807 69.0955 235.287C69.0362 211.625 53.7093 196.772 47.8234 178.858C46.9939 198.392 40.7327 219.526 41.266 239.396L41.2463 239.415ZM41.2463 334.735C49.5615 342.616 59.7729 346.961 71.2681 352.432C60.0889 339.91 54.2623 321.66 44.5645 306.787C34.7481 291.717 20.5075 281.051 8.69628 270.109C21.1 291.164 24.2405 318.598 41.2463 334.735ZM115.926 385.733C116.498 388.992 118.157 391.717 118.394 395.47C119.56 395.233 119.915 393.495 120.212 392.666C125.268 378.622 130.522 364.283 126.492 344.67C126.473 344.393 126.413 344.117 126.018 344.216C122.7 357.884 113.299 371.018 115.926 385.753V385.733ZM69.7078 405.01C78.3983 411.686 89.222 413.464 103.344 416.15C96.1349 408.328 89.8737 399.243 80.6894 393.238C71.3274 387.115 59.6939 384.607 49.3245 378.82C49.048 378.859 48.7715 378.899 48.8702 379.294C55.5857 388.044 61.1753 398.472 69.7078 405.03V405.01Z" fill="#9E42A5"/>
	<path fill-rule="evenodd" clip-rule="evenodd" d="M416.142 355C414.878 345.401 413.594 334.933 410.453 325.077C407.51 315.833 403.975 306.807 404.133 296.971C404.311 285.337 408.478 271.63 419.697 274.573C432.081 277.812 432.436 305.878 421.198 314.865C418.551 316.979 415.806 316.92 412.902 318.776C418.63 334.4 421.238 352.63 420.526 373.626C429.059 357.785 436.959 342.201 444.09 324.879C446.618 318.717 451.121 309.592 450.706 303.548C450.153 295.864 446.638 288.616 444.761 281.525C442.766 273.94 440.673 266.198 440.89 257.369C441.364 236.907 450.351 226.596 457.935 213.62C460.286 209.571 462.992 205.383 465.125 201.196C467.258 197.009 468.107 190.274 473.164 189.78C475.771 191.794 474.665 195.251 474.763 197.858C474.882 200.939 475.198 204.258 475.316 207.24C476.067 225.51 479.622 245.36 476.64 264.776C474.981 275.481 470.596 284.112 465.283 292.23C460.147 300.072 455.822 307.873 451.812 317.157C443.477 336.473 436.525 354.289 427.36 370.505C443.991 357.509 451.18 336.473 464.552 320.652C475.948 307.162 491.69 296.951 504.153 285.495C506.089 283.717 508.459 281.327 511.481 281.96C513.871 285.258 510.711 288.873 509.21 291.559C503.857 301.059 498.761 309.987 494.06 319.606C487.72 332.582 481.874 346.191 472.61 355.474C465.698 362.407 456.454 367.167 447.862 370.979C438.796 374.989 428.486 376.47 420.171 382.948C410.216 402.147 397.971 418.619 386.001 435.408C397.951 427.409 406.286 415.084 419.322 407.618C429.237 401.949 441.186 399.954 451.694 395.609C455.052 394.226 458.548 390.928 462.695 392.864C464.078 396.3 460.799 398.453 459.199 400.488C448.435 414.314 438.856 427.33 422.205 432.623C414.68 435.013 404.074 435.072 395.186 437.166C388.292 438.786 380.333 442.953 375.573 447.536C371.642 451.308 369.509 454.784 366.191 458.359C360.641 464.324 351.654 473.054 345.235 478.407C343.003 480.283 336.287 486.861 332.535 484.727C325.483 480.718 338.44 473.884 341.66 471.553C351.417 464.522 357.105 459.702 365.401 451.762C369.213 448.128 374.15 443.723 375.79 440.089C378.16 434.855 379.543 423.38 379.444 415.202C379.325 405.505 373.084 396.083 372.57 382.83C372.333 376.984 372.807 371.117 374.328 363.375C375.592 356.956 377.37 347.692 380.846 348.087C383.927 348.443 383.947 355.02 384.599 358.239C387.048 370.564 392.736 379.393 392.776 391.659C392.815 407.954 383.532 417.296 383.137 430.944C391.314 421.029 400.459 407.677 407.787 395.826C410.394 391.639 414.147 386.76 415.036 382.948C415.865 379.275 414.996 374.475 414.305 370.288C412.33 358.081 408.755 347.554 405.634 337.283C394.435 348.443 375.77 332.74 378.338 318.934C379.819 311.053 388.747 308.9 395.679 313.028C408.004 320.396 410.927 343.485 416.102 355.494C416.102 355.336 416.122 355.178 416.142 355.04V355ZM470.833 199.813C463.604 217.234 447.191 230.863 445.334 254.466C443.971 271.926 451.457 284.942 454.736 300.131C462.577 288.043 471.05 277.594 472.788 260.687C474.823 240.916 470.181 219.367 470.833 199.813ZM502.929 293.771C490.327 303.785 475.316 313.325 464.374 327.625C453.57 341.727 446.381 359.484 434.293 371.117C446.183 366.535 456.671 362.98 465.579 355.751C483.77 340.937 488.964 313.838 502.948 293.771H502.929ZM380.313 358.753C379.918 358.634 379.859 358.891 379.799 359.168C374.289 378.406 378.437 393.101 382.407 407.499C382.644 408.368 382.861 410.107 384.006 410.442C384.52 406.729 386.377 404.122 387.206 400.922C390.939 386.425 382.565 372.618 380.293 358.753H380.313ZM454.578 399.559C454.696 399.164 454.439 399.105 454.143 399.046C443.359 404.043 431.567 405.663 421.771 411.055C412.152 416.348 405.219 424.94 397.437 432.189C411.717 430.589 422.64 429.641 431.824 423.636C440.831 417.75 447.191 407.776 454.558 399.559H454.578Z" fill="#9E42A5"/>
	<path d="M288.447 99.696C286.136 98.1751 283.331 98.0369 280.783 99.3405C277.9 100.802 276.339 103.765 275.549 106.787C273.574 114.213 272.508 121.995 271.046 129.54C270.394 132.918 269.644 136.552 270.77 139.91C271.737 142.833 273.93 145.421 276.991 146.23C280.171 147.08 283.628 145.658 285.84 143.347C288.131 140.957 289.197 137.757 290.185 134.696C291.429 130.903 292.654 127.091 293.898 123.299C295.044 119.783 296.367 116.287 296.742 112.574C297.295 107.083 294.096 100.526 288.467 99.696H288.447Z" fill="#F8D9FF"/>
	<path d="M315.823 148.363C315.823 148.363 315.685 148.324 315.626 148.304C307.567 146.724 304.288 154.96 301.365 160.787C301.029 161.458 300.674 162.15 300.299 162.861C298.797 163.848 297.612 165.29 296.585 166.791C295.005 169.161 293.386 171.828 293.86 174.79C293.939 175.324 294.097 175.817 294.314 176.291C293.939 177.911 293.721 179.531 293.781 181.17C293.998 187.095 298.758 193.475 305.236 192.784C309.167 192.369 311.695 189.742 313.65 186.582C313.887 186.345 314.105 186.088 314.302 185.812C314.974 184.903 315.388 183.896 315.665 182.829C316.119 181.881 316.554 180.933 316.988 180.044C318.707 176.469 320.425 172.894 322.143 169.319C323.684 166.139 325.481 162.92 325.975 159.365C326.785 153.597 322.38 146.408 315.823 148.324V148.363Z" fill="#F8D9FF"/>
	<path d="M343.438 212.653C343.26 212.179 343.023 211.764 342.746 211.409C341.739 209.809 340.119 208.782 338.263 208.505C337.986 207.36 337.078 206.431 335.517 206.55C333.384 206.708 331.607 207.459 330.046 208.584C329.414 208.446 328.723 208.545 328.111 208.979C320.882 213.917 315.944 221.205 313.85 229.541C310.69 234.044 306.997 239.159 308.557 244.848C310.117 250.477 316.418 252.551 321.553 250.516C327.301 248.245 331.192 242.142 334.51 237.224C334.708 236.947 334.866 236.651 335.043 236.374C335.893 236.552 336.861 236.374 337.69 235.644C341.858 231.99 344.228 226.953 344.721 221.64C344.978 220.83 345.195 220.001 345.294 219.132C345.551 216.801 344.82 214.431 343.418 212.693L343.438 212.653ZM326.669 222.687C326.531 222.707 326.412 222.746 326.274 222.786C326.333 222.687 326.373 222.608 326.432 222.509C326.689 222.134 326.926 221.778 327.182 221.403C327.024 221.837 326.847 222.252 326.669 222.667V222.687Z" fill="#F8D9FF"/>
	<path d="M342.213 274.813C342.292 274.398 342.272 273.964 342.174 273.569C341.7 271.89 340.119 271.258 338.52 271.495C330.56 272.739 322.837 275.129 315.529 278.546C309.505 281.351 301.782 285.104 299.709 292.036C298.958 294.584 299.234 297.073 300.222 299.305C300.281 301.3 300.973 303.295 302.572 305.171C305.812 308.983 311.204 309.26 315.055 307.028C320.902 306.435 326.57 303.295 331.133 299.898C334.076 297.705 336.781 295.236 339.132 292.432C341.403 289.726 343.833 286.644 344.998 283.267C346.084 280.087 345.215 276.433 342.213 274.853V274.813ZM312.448 301.162C312.448 301.162 312.527 301.201 312.567 301.221C312.507 301.221 312.468 301.221 312.409 301.221C312.409 301.221 312.448 301.201 312.448 301.181V301.162ZM327.933 284.353C329.434 283.682 330.935 283.01 332.416 282.319C332.713 282.181 333.009 282.042 333.305 281.904C331.804 283.109 329.908 283.8 327.933 284.333V284.353Z" fill="#F8D9FF"/>
	<path d="M279.602 144.196C279.74 144.196 279.839 144.196 279.918 144.196C279.72 144.117 279.463 144.057 279.128 144.038C279.167 144.038 279.207 144.077 279.226 144.097C279.345 144.136 279.463 144.176 279.582 144.215L279.602 144.196Z" fill="#F8D9FF"/>
	<path d="M297.497 202.283C297.615 193.612 294.909 185.494 292.401 177.337C291.808 175.381 291.236 173.406 290.781 171.411C290.584 170.562 290.426 169.713 290.268 168.864C290.268 168.785 290.248 168.745 290.228 168.666C290.228 168.627 290.228 168.607 290.228 168.567C290.169 167.422 290.07 166.276 290.09 165.131C290.09 164.874 290.07 164.459 290.051 164.044C290.051 163.965 290.09 163.847 290.13 163.649C290.209 163.234 290.288 162.82 290.406 162.405C290.683 161.299 291.078 160.232 291.512 159.185C294.317 152.431 287.167 143.483 280.076 144.174C280.037 144.174 279.977 144.174 279.938 144.174C280.353 144.332 280.432 144.51 280.155 144.451C280.116 144.411 280.057 144.392 279.958 144.332C279.879 144.293 279.741 144.234 279.602 144.174C279.563 144.174 279.523 144.174 279.484 144.174C279.405 144.135 279.326 144.095 279.247 144.056C279.108 144.016 278.97 143.977 278.891 143.977C278.99 143.977 279.049 143.977 279.128 143.997C277.015 142.93 274.822 141.903 272.571 141.172C267.692 139.612 262.419 140.027 257.382 140.244C252.8 140.441 248.218 140.619 243.635 140.817C240.06 140.975 236.308 140.975 232.713 141.548C232.022 140.856 231.271 140.264 230.461 139.829C225.366 137.123 216.873 137.992 214.246 144.076C213.772 145.182 213.278 146.308 212.804 147.414C210.849 148.895 209.328 150.989 208.538 153.576C207.807 155.986 207.175 158.415 206.602 160.864C206.385 161.694 206.168 162.543 205.931 163.373C205.753 164.044 205.654 164.716 205.595 165.368C199.887 193.967 203.896 224.068 216.418 250.476C218.354 254.545 220.507 258.633 222.956 262.544C222.166 268.252 225.089 273.703 231.311 275.678C232.812 276.152 234.392 276.607 236.031 277.021C237.295 277.555 238.658 277.851 240.041 277.95C256.454 281.308 277.331 280.656 284.915 264.42C285.804 262.485 286.535 260.509 287.127 258.495C287.404 258.1 287.7 257.744 287.917 257.31C291.887 249.587 293.665 241.094 292.954 232.621C293.191 231.297 293.428 229.974 293.645 228.651C295.166 219.96 297.358 211.052 297.477 202.204L297.497 202.283ZM227.598 206.687C227.598 206.549 227.578 206.411 227.558 206.272C228.012 208.386 227.795 207.774 227.657 207.102C227.657 206.964 227.617 206.826 227.598 206.687ZM236.545 166.711C236.545 166.711 236.545 166.632 236.545 166.592C236.663 166.197 236.742 165.782 236.821 165.348C236.979 165.071 237.039 165.348 236.545 166.711ZM290.209 162.602C290.11 163.274 290.051 163.708 290.011 163.945C290.011 163.412 290.011 162.859 290.209 162.602Z" fill="#F8D9FF"/>
	<path fill-rule="evenodd" clip-rule="evenodd" d="M356.198 141.865C369.234 132.819 376.186 114.806 389.202 102.52C393.311 98.6488 398.446 92.9604 403.818 92.3086C408.973 91.6766 414.089 95.6861 417.427 97.8785C421.357 100.466 425.683 103.389 428.25 106.075C430.996 108.959 434.65 113.66 434.887 118.46C435.242 125.807 427.026 136.809 423.036 141.786C417.605 148.521 411.521 154.348 406.465 160.471C400.855 167.305 397.34 174.909 393.014 181.921C388.294 189.585 382.526 195.411 378.477 201.475C392.856 201.455 407.452 196.577 418.711 200.527C422.977 202.028 427.204 206.63 429.613 210.185C432.359 214.215 436.052 219.567 436.368 224.525C436.724 229.956 433.504 234.756 430.403 239.635C427.342 244.395 425.051 249.293 422.365 252.908C414.78 263.06 403.68 270.111 392.362 276.827C388.629 279.039 384.087 280.935 380.966 283.404C378.063 285.735 375.416 290.712 372.809 294.702C365.185 306.434 358.213 317.396 350.312 328.99C344.9 336.93 339.528 343.922 335.993 352.455C321.673 387.217 338.698 437.189 335.163 485.185C282.19 509.222 198.129 502.961 162.498 473.986C157.56 427.826 155.901 381.667 144.722 342.382C136.565 313.703 126.274 288.144 118.492 257.964C115.905 247.871 113.475 237.284 113.594 225.828C113.732 213.622 117.268 202.206 119.322 190.592C121.376 179.116 122.699 167.147 123.489 153.973C124.99 129.402 123.45 100.328 132.377 81.2083C140.535 63.7282 160.108 49.4874 173.954 37.4193C181.36 30.9606 189.202 24.0673 196.825 17.3716C200.302 14.3101 204.133 10.4783 208.518 7.33785C212.35 4.5924 217.584 0.0100688 223.509 3.48632C225.228 8.85872 221.752 13.2633 220.408 17.4308C222.245 20.9466 223.233 25.4104 224.122 29.9928C233.326 27.9189 246.737 26.082 255.941 28.0769C259.852 24.2056 262.637 19.327 265.935 14.6854C268.977 10.4388 272.275 4.86893 277.015 2.71602C288.787 -2.65638 306.859 0.661858 313.614 6.40953C318.434 10.5178 320.804 16.8186 323.45 23.0205C327.065 31.4149 330.739 38.2686 329.889 48.1839C328.724 61.4766 322.443 75.9149 319.461 87.1337C319.382 87.5287 319.006 87.6473 319.026 88.1411C325.445 79.9047 330.363 70.7005 336.032 60.5878C342.649 48.7764 347.646 32.9752 366.37 34.1801C380.808 35.1084 396.174 44.0756 395.957 60.3903C395.858 68.1328 391.533 75.9544 387.958 82.4921C384.403 89.0101 380.215 95.6466 376.838 101.829C368.918 116.386 363.94 130.923 356.158 141.905L356.198 141.865ZM186.95 32.679C192.875 42.8312 202.968 31.6914 209.091 24.9561C214.661 18.7937 219.283 11.4264 218.809 6.68605C205.753 13.1843 196.588 23.1588 186.97 32.679H186.95ZM297.655 132.621C306.425 114.292 312.627 93.4344 319.125 73.3472C321.87 64.9133 325.09 55.4919 325.426 47.4135C325.84 37.4983 322.325 32.1062 319.145 24.6994C313.832 12.335 307.847 4.78992 293.369 4.63191C290.031 4.59241 284.165 4.61214 279.721 6.42927C275.613 8.1279 272.808 13.0263 270.043 16.8383C267.1 20.9071 263.999 24.7981 261.945 29.1237C265.797 29.499 268.266 31.4149 270.557 33.5283C271.979 28.5114 271.801 21.3416 276.067 18.9517C279.623 22.2305 276.087 26.7535 275.277 30.3088C272.374 43.088 273.5 58.2374 271.88 71.7868C270.3 84.9808 267.199 98.392 266.429 111.428C266.152 116.01 265.658 121.086 268.226 125.076C268.957 119.388 270.517 114.746 272.67 109.078C274.467 104.298 276.127 97.3255 281.242 96.2786C284.639 95.5873 288.195 97.1872 290.683 98.1748C296.53 100.486 298.781 104.061 298.426 112.455C298.208 117.314 296.49 122.904 294.93 127.901C293.29 133.155 290.782 138.112 290.861 141.905C294.278 140.443 295.977 136.177 297.675 132.641L297.655 132.621ZM190.92 41.2709C187.305 40.7178 186.259 37.4786 183.197 35.3454C171.761 46.8605 158.745 55.5907 148.218 66.454C136.031 79.0356 132.239 91.4 130.402 113.225C128.783 132.286 128.743 152.748 126.61 172.421C124.536 191.342 118.255 209.928 118.137 227.468C117.998 246.903 124.951 264.64 130.224 281.29C135.498 297.941 141.601 314.295 146.46 330.432C159.061 372.285 162.004 423.698 167.297 472.169C202.494 497.865 280.65 503.297 330.581 482.459C332.832 443.963 321.515 399.582 327.46 365.688C330.403 348.979 338.244 337.918 346.678 325.711C352.959 316.586 358.785 307.362 364.691 298.573C366.587 295.729 369.668 293.517 370.063 289.902C362.459 295.235 354.46 299.58 345.829 303.649C334.472 309.002 322.009 311.885 306.543 311.905C300.855 308.152 294.396 299.284 296.431 290.89C297.181 287.769 300.5 286.031 302.81 282.653C304.233 280.56 304.786 277.676 305.852 276.076C308.756 271.711 314.286 268.393 319.441 264.936C333.603 255.396 350.213 241.807 363.802 234.736C362.775 228.515 363.624 218.086 369.688 218.165C371.229 222.984 366.449 226.065 367.575 232.05C374.981 227.665 381.46 220.97 388.234 216.051C390.091 214.708 392.876 210.699 395.918 213.128C397.478 216.091 393.567 216.782 392.264 217.77C386.674 222.036 382.487 226.658 377.332 230.944C370.379 236.751 361.886 240.998 354.183 246.113C346.658 251.091 339.37 256.66 332.022 261.697C326.216 265.667 320.33 269.42 315.55 273.508C314.088 274.753 311.422 275.819 311.402 278.189C320.764 270.072 350.174 260.927 347.606 283.858C346.441 294.228 334.393 300.173 327.282 305.229C346.836 300.607 360.741 290.396 375.949 281.152C391.533 271.691 407.275 264.956 417.861 251.11C420.508 247.654 422.068 243.703 425.446 238.371C428.626 233.334 432.22 229.66 431.45 223.755C430.64 217.553 422.286 206.749 417.545 204.931C411.185 202.482 401.112 204.102 392.975 204.931C386.042 205.642 378.596 204.615 374.369 206.057C372.117 206.828 368.898 211.39 366.034 214.432C359.891 220.91 356.158 226.362 349.878 231.616C346.48 234.46 342.175 236.297 339.488 238.627C336.684 241.077 334.195 245.086 331.213 247.97C328.151 250.933 324.853 254.863 319.856 255.041C314.207 255.238 308.558 249.708 306.504 245.521C304.45 241.333 303.206 233.334 303.048 229.028C302.534 215.301 311.876 203.944 317.249 195.747C317.9 194.759 320.35 192.903 318.532 192.725C316.498 194.345 313.99 193.653 311.284 194.641C309.328 195.352 307.985 197.051 306.05 197.406C303.66 197.841 301.23 195.964 300.658 197.722C299.808 211.074 298.248 226.618 295.423 241.274C292.836 254.725 290.11 269.617 280.334 276.096C272.749 281.132 259.911 284.53 246.362 283.068C250.43 289.843 257.047 297.25 261.965 305.723C265.56 311.925 269.273 318.996 271.999 325.257C272.808 327.114 274.843 330.333 272.413 332.111C269.293 332.743 268.088 328.852 267.179 327.015C260.859 314.196 255.625 303.807 247.942 293.28C245.255 289.606 241.582 283.582 238.382 281.567C235.696 279.868 231.844 280.066 228.842 278.209C223.509 274.931 221.554 268.926 217.624 263.159C214.226 258.201 209.032 254.507 204.094 250.715C191.631 241.136 177.311 232.919 162.379 227.191C160.049 226.302 154.696 226.164 154.676 221.76C160.661 220.417 166.073 224.446 171.188 226.658C184.501 232.425 197.398 238.825 207.807 247.061C209.308 248.246 212.745 252.908 213.456 251.15C208.202 235.131 203.877 218.046 201.902 198.275C182.802 187.234 185.192 151.938 182.111 122.805C179.365 124.266 179.721 130.33 175.099 128.632C174.013 125.412 176.324 121.995 177.469 119.151C181.242 109.789 186.831 100.328 186.95 89.0891C186.989 86.5017 185.014 80.7737 188.352 79.6677C191.67 79.5887 190.169 84.9413 190.801 87.8645C198.169 81.7021 205.575 73.8805 210.553 65.0516C215.332 56.5782 217.485 49.3887 215.234 36.7675C215.589 34.2196 219.243 33.5085 219.776 30.6051C220.27 27.8794 218.552 24.4426 217.268 21.9144C212.014 27.4448 201.368 42.8312 190.92 41.1918V41.2709ZM246.362 31.5334C236.585 31.5334 224.951 33.1925 220.211 38.0316C230.264 43.8978 254.973 42.8312 265.323 36.2935C262.004 32.3234 253.827 31.5531 246.362 31.5334ZM220.566 43.8978C221.119 73.9002 222.364 104.495 223.095 134.656C232.694 141.549 253.887 139.633 266.883 135.446C265.678 130.587 263.051 127.96 262.222 123.437C260.385 113.62 262.34 103.034 263.841 93.3554C266.33 77.3173 269.786 62.4246 266.607 41.5869C254.4 46.5445 232.733 47.7493 220.547 43.878L220.566 43.8978ZM339.212 161.557C345.414 151.879 351.221 141.49 357.008 131.002C362.578 120.928 367.476 109.532 373.283 99.0636C376.087 94.0072 378.813 88.5163 381.657 83.3217C385.825 75.7174 392.343 68.1526 391.434 58.1583C390.308 45.7149 372.513 35.7207 358.845 38.9994C350.431 41.0141 346.184 51.4231 341.878 59.1854C338.56 65.1701 335.123 71.3326 332.102 76.4877C327.144 85.0203 321.199 93.0789 316.419 101.513C311.955 109.413 309.407 117.729 305.615 126.242C299.789 139.455 291.315 153.4 292.56 170.268C294.554 165.507 296.648 161.063 299.552 156.086C301.922 152.057 305.102 145.657 309.684 144.67C318.414 142.774 327.756 151.523 329.119 157.251C331.015 165.251 326.235 170.959 323.391 176.272C321.475 179.847 319.737 183.086 318.078 185.93C317.881 186.286 315.392 187.925 317.249 188.439C327.104 182.553 332.714 171.709 339.212 161.557ZM204.173 81.7613C199.788 86.5807 192.658 91.0445 190.308 96.3577C189.735 97.6218 189.557 99.9129 189.123 101.335C187.523 106.846 186.298 110.342 184.046 114.904C191.315 138.428 184.758 177.536 200.934 191.026C197.991 169.102 202.85 153.913 211.244 142.24C213.318 139.376 217.92 136.749 218.611 133.925C219.599 129.876 218.335 122.193 218.058 116.761C217.209 99.7944 217.623 77.3963 215.846 63.827C213.14 70.3055 208.972 76.4087 204.153 81.7416L204.173 81.7613ZM281.045 101.691C275.692 112.396 270.912 123.615 272.058 140.068C274.546 143.03 277.825 145.065 282.704 145.322C286.516 140.127 288.392 133.253 290.426 126.676C292.481 120.079 295.246 112.732 293.014 104.416C290.308 102.5 284.778 99.0834 281.045 101.691ZM318.315 214.432C321.87 209.869 326.69 202.64 333.306 202.225C340.002 201.791 349.443 209.119 350.391 216.427C350.944 220.812 348.594 224.406 347.665 228.376C359.595 213.76 373.954 200.349 385.292 184.331C390.98 176.292 395.266 167.285 401.014 159.799C407.077 151.918 414.504 145.499 420.33 137.994C423.253 134.221 431.055 124.049 430.423 118.223C429.89 113.304 424.103 108.702 419.797 105.108C415.926 101.849 410.178 96.3972 405.043 96.6539C400.836 96.8712 394.436 102.718 391.355 105.838C383.593 113.68 378.537 124.405 370.952 134.103C367.496 138.527 362.933 142.438 358.943 146.625C346.362 159.72 337.395 173.843 327.598 189.308C320.093 201.139 307.966 212.378 307.906 229.324C311.106 225.611 314.167 219.784 318.315 214.452V214.432ZM219.46 139.811C212.765 146.823 207.037 156.126 205.417 167.68C202.079 191.599 210.059 224.446 215.905 243.703C219.283 254.863 223.45 268.314 229.988 273.311C240.12 281.073 265.441 280.797 277.134 272.916C284.304 268.097 286.239 259.959 288.55 250.597C292.757 233.65 295.325 213.622 295.977 194.621C290.703 189.288 287.523 179.551 287.543 169.082C287.563 161.36 291.059 153.676 287.306 148.956C284.718 148.877 282.407 150.2 279.504 149.924C273.697 149.351 268.838 144.196 266.607 139.89C253.472 144.788 230.916 145.519 220.863 139.199C220.942 138.191 219.46 139.396 219.421 139.771L219.46 139.811ZM317.091 178.148C319.362 174.099 325.603 164.875 324.813 159.503C324.142 154.822 315.886 147.771 309.96 149.588C304.726 151.188 293.192 176.45 294.278 182.968C295.088 187.787 299.216 192.192 305.2 193.12C310.434 189.426 313.476 184.587 317.071 178.148H317.091ZM335.835 235.981C339.548 231.458 347.428 224.011 345.414 215.755C344.327 211.272 335.183 204.734 330.225 208.309C326.235 211.193 322.068 216.407 317.821 222.826C313.713 229.048 308.993 235.823 309.565 240.524C310.178 245.659 314.385 248.424 320.014 250.715C326.591 247.14 330.739 242.202 335.835 236V235.981ZM314.503 281.488C308.598 284.866 301.744 288.164 300.954 293.122C300.184 298 304.094 303.689 307.709 307.461C318.69 305.664 335.084 296.993 340.061 289.784C343.498 284.787 344.229 276.649 339.093 273.627C329.08 272.62 322.522 276.906 314.523 281.488H314.503Z" fill="#9E42A5"/>
	<path fill-rule="evenodd" clip-rule="evenodd" d="M228.821 91.0842C230.44 96.3183 230.401 106.964 230.243 114.588C230.184 117.077 230.638 119.249 230.677 121.936C230.737 125.748 231.606 130.764 228.327 131.91C224.495 130.666 226.332 125.945 226.293 122.706C226.174 113.778 225.582 102.026 225.957 92.7433C225.779 91.9533 226.372 91.8743 226.352 91.2422C227.162 91.183 227.991 91.1435 228.801 91.104L228.821 91.0842Z" fill="#9E42A5"/>
	<path fill-rule="evenodd" clip-rule="evenodd" d="M286.974 207.975C286.855 211.095 288.396 215.717 286.046 216.883C285.71 216.902 285.394 216.922 285.078 216.942C281.463 216.586 282.273 203.827 286.994 207.975H286.974Z" fill="#9E42A5"/>
	<path fill-rule="evenodd" clip-rule="evenodd" d="M285.448 223.282C287.146 226.699 286.534 231.657 286.218 236.022C285.606 244.199 284.283 252.455 281.754 259.881C280.668 263.081 279.147 267.999 274.802 266.696C273.479 263.338 276.777 261.007 277.725 258.163C280.787 249.077 281.557 236.239 282.604 224.941C282.742 224.289 283.414 224.112 283.493 223.42C284.144 223.381 284.796 223.341 285.448 223.302V223.282Z" fill="#9E42A5"/>
	<path fill-rule="evenodd" clip-rule="evenodd" d="M240.988 366.021C239.507 369.656 234.372 368.352 231.29 368.076C221.02 367.187 211.796 364.52 202.434 361.953C196.924 360.451 190.702 359.049 183.927 356.679C179.701 355.198 168.66 351.405 170.082 347.198C169.963 346.784 170.24 346.724 170.536 346.685C170.931 346.566 170.99 346.171 171.484 346.132C171.8 346.132 172.136 346.092 172.452 346.073C181.3 352.63 193.25 354.704 205.1 357.864C213.771 360.175 222.462 362.525 232.476 363.592C235.201 363.888 239.428 362.703 240.969 366.021H240.988Z" fill="#9E42A5"/>
	<path fill-rule="evenodd" clip-rule="evenodd" d="M272.77 371.475C273.323 374.694 268.662 374.378 266.055 374.339C262.618 374.279 257.266 373.272 257.937 369.914C258.332 369.796 258.392 369.401 258.885 369.361C260.386 368.137 262.48 369.736 264.83 369.973C267.576 370.27 271.506 369.164 272.77 371.455V371.475Z" fill="#9E42A5"/>
</svg>
